<?xml version="1.0" encoding="UTF-8" standalone="no"?>
<svg
   xmlns:dc="http://purl.org/dc/elements/1.1/"
   xmlns:cc="http://creativecommons.org/ns#"
   xmlns:rdf="http://www.w3.org/1999/02/22-rdf-syntax-ns#"
   xmlns:svg="http://www.w3.org/2000/svg"
   xmlns="http://www.w3.org/2000/svg"
   xmlns:sodipodi="http://sodipodi.sourceforge.net/DTD/sodipodi-0.dtd"
   xmlns:inkscape="http://www.inkscape.org/namespaces/inkscape"
   version="1.1"
   id="Layer_1"
   x="0px"
   y="0px"
   viewBox="0 0 1050 1300"
   xml:space="preserve"
   sodipodi:docname="Controller_JoyConLeft.svg"
   inkscape:version="1.0.2 (e86c870879, 2021-01-15, custom)"
   width="1050"
   height="1300"
   inkscape:export-filename="/home/shahil/Desktop/Ryujinx/Ryujinx/Ui/Resources/Controller_JoyConLeft.png"
   inkscape:export-xdpi="96"
   inkscape:export-ydpi="96"><metadata
   id="metadata85"><rdf:RDF><cc:Work
       rdf:about=""><dc:format>image/svg+xml</dc:format><dc:type
         rdf:resource="http://purl.org/dc/dcmitype/StillImage" /><dc:title /></cc:Work></rdf:RDF></metadata><defs
   id="defs83" /><sodipodi:namedview
   pagecolor="#ffffff"
   bordercolor="#666666"
   borderopacity="1"
   objecttolerance="10"
   gridtolerance="10"
   guidetolerance="10"
   inkscape:pageopacity="0"
   inkscape:pageshadow="2"
   inkscape:window-width="1326"
   inkscape:window-height="908"
   id="namedview81"
   showgrid="false"
   inkscape:zoom="0.66711859"
   inkscape:cx="271.99778"
   inkscape:cy="652.59759"
   inkscape:window-x="74"
   inkscape:window-y="73"
   inkscape:window-maximized="0"
   inkscape:current-layer="g344"
   inkscape:document-rotation="0" />
<style
   type="text/css"
   id="style2">
	.st0{opacity:0.1;}
	.st1{fill:#02C5E5;}
	.st2{fill:#FFFFFF;}
</style>























<style
   type="text/css"
   id="style2-6">
	.st0{opacity:0.1;}
	.st1{fill:#02C5E5;}
	.st2{fill:#FF5F55;}
	.st3{fill:#FFFFFF;}
</style><g
   id="g344"
   transform="translate(0,300)"><path
     class="st3"
     d="m 464.57192,906.60256 h -8.25012 c -3.75954,0 -6.68364,-2.89993 -6.78808,-6.49983 V 71.225413 c 0,-3.599901 3.02854,-6.399825 6.78808,-6.499822 h 8.25012 c 3.75955,0 6.68365,2.899921 6.78809,6.499822 V 207.0217 c 0,4.89986 -1.25319,9.59973 -3.55069,13.99961 l -6.99694,12.99965 v 79.19783 l 6.99694,12.99965 c 2.2975,4.29988 3.55069,9.09975 3.55069,13.89962 v 269.69262 c 0,4.89986 -1.25319,9.59973 -3.55069,13.99961 l -6.99694,12.99965 v 79.19783 l 6.99694,12.99964 c 2.2975,4.29989 3.55069,9.09976 3.55069,13.89962 v 157.1957 c 0,3.5999 -3.02854,6.49983 -6.78809,6.49983 z M 456.3218,65.725564 c -3.13296,0 -5.74376,2.399934 -5.74376,5.499849 V 900.10273 c 0,2.99992 2.50637,5.49985 5.74376,5.49985 h 8.25012 c 3.13296,0 5.74377,-2.39993 5.74377,-5.49985 v -157.1957 c 0,-4.69987 -1.14876,-9.29974 -3.44627,-13.49963 l -7.10136,-13.09964 c 0,-0.1 -0.10445,-0.19999 -0.10445,-0.19999 v -79.49783 c 0,-0.1 0,-0.19999 0.10445,-0.19999 l 7.10136,-13.09964 c 2.29751,-4.19989 3.44627,-8.79976 3.44627,-13.49963 V 340.11806 c 0,-4.69988 -1.14876,-9.29975 -3.44627,-13.49963 l -7.10136,-13.09965 c 0,-0.1 -0.10445,-0.19999 -0.10445,-0.19999 v -79.49783 c 0,-0.1 0,-0.19999 0.10445,-0.19999 l 7.10136,-13.09964 c 2.29751,-4.19989 3.44627,-8.79976 3.44627,-13.49963 V 71.225413 c 0,-2.999918 -2.50637,-5.499849 -5.74377,-5.499849 z"
     id="path66-7"
     style="fill:#000000;stroke-width:1.02191" /><path
     class="st3"
     d="m 450.16031,858.90386 h -11.69637 c -0.3133,0 -0.52216,-0.19999 -0.52216,-0.49999 V 72.025391 c 0,-0.299991 0.20886,-0.499986 0.52216,-0.499986 h 11.69637 c 0.31331,0 0.52217,0.199995 0.52217,0.499986 V 858.40387 c 0,0.3 -0.20886,0.49999 -0.52217,0.49999 z m -11.17421,-0.99997 h 10.65206 V 72.525378 H 438.9861 Z"
     id="path68-5"
     style="fill:#000000;stroke-width:1.02191" /><path
     class="st3"
     d="M 432.19802,1000 H 321.2913 C 199.10592,1000 100,905.20259 100,788.1058 c 0,0 0,0 0,0 V 220.92132 C 100,104.12451 199.31479,9.1271124 321.2913,9.1271124 h 110.90672 c 3.75955,0 6.78808,2.8999206 6.78808,6.4998226 V 993.60018 c 0,3.4999 -3.02853,6.39982 -6.78808,6.39982 z M 321.2913,10.127085 c -121.45436,0 -220.24698,94.597415 -220.24698,210.794235 V 788.1058 c 0,116.29682 98.79262,210.89423 220.24698,210.89423 h 110.90672 c 3.13296,0 5.74376,-2.39994 5.74376,-5.49985 V 15.526937 c 0,-2.999918 -2.50637,-5.499849 -5.74376,-5.499849 H 321.2913 Z"
     id="path70-3"
     style="fill:#000000;stroke-width:1.02191" /><path
     class="st1"
     d="m 464.57192,717.10774 h -4.38613 c -0.6266,0 -1.04432,-0.39999 -1.04432,-0.99997 0,0 0,0 0,0 v -79.49783 c 0,-0.59998 0.41772,-0.99997 1.04432,-0.99997 0,0 0,0 0,0 h 4.38613 c 3.96842,0 7.20581,3.09992 7.31024,6.99981 v 67.59815 c 0,3.7999 -3.23739,6.89981 -7.31024,6.89981 z m -3.34181,-1.99994 h 3.34181 c 2.81967,0 5.2216,-2.19994 5.2216,-4.99987 v -67.59815 c 0,-2.69992 -2.2975,-4.99986 -5.2216,-4.99986 h -3.34181 z"
     id="path98"
     style="fill:#000000;stroke-width:1.02191" /><path
     class="st1"
     d="m 464.57192,314.31876 h -4.38613 c -0.6266,0 -1.04432,-0.39999 -1.04432,-0.99997 v -79.49783 c 0,-0.59998 0.41772,-0.99997 1.04432,-0.99997 h 4.38613 c 3.96842,0 7.20581,3.09992 7.31024,6.99981 v 67.59815 c 0,3.7999 -3.23739,6.89981 -7.31024,6.89981 z m -3.34181,-1.99994 h 3.34181 c 2.81967,0 5.2216,-2.19994 5.2216,-4.99987 V 239.7208 c 0,-2.69992 -2.2975,-4.99986 -5.2216,-4.99986 h -3.34181 z"
     id="path100"
     style="fill:#000000;stroke-width:1.02191" /><path
     style="fill:#00bbdb;fill-opacity:1;stroke:#000000;stroke-width:1.02191;stroke-opacity:1"
     d="m 301.80462,997.87147 c -27.3974,-3.01208 -52.16212,-8.44514 -78.4188,-20.98006 -22.86572,-10.91605 -42.95539,-25.71158 -59.99489,-42.4997 -33.74769,-33.24979 -56.08758,-77.78185 -61.65889,-126.68485 -0.38874,-3.41216 -0.0608,-30.44466 -0.35167,-72.24849 -1.10314,-158.53778 -0.94054,-520.56148 0.53356,-534.39504 1.88631,-17.70213 6.33173,-36.49009 12.54446,-52.35724 2.92082,-7.45969 7.40558,-15.77641 11.19031,-23.13781 32.77876,-63.755689 96.30516,-104.376967 169.62358,-113.580035 18.9871,-2.3832976 139.03588,-3.2591479 141.46762,-0.930688 0.16023,0.15342 0.91304,2.312286 1.09189,7.011085 0.42252,11.100196 0.36582,35.995168 1.31871,79.379375 0.71911,32.740463 -0.0286,76.311253 0.10497,132.516073 0.16692,70.25567 -1.64647,160.1586 -1.64647,274.76299 0,484.48923 1.5077,491.17146 -0.90722,492.40901 -0.33869,0.17355 -2.58006,1.66295 -5.57545,1.80505 -22.88177,1.08546 -124.52532,-0.54236 -125.9099,-0.69458 z"
     id="path1144"
     sodipodi:nodetypes="ssssssssssssssssss" /><polygon
     class="st1"
     points="237.9,448.9 225.8,469.9 250,469.9 "
     id="polygon80"
     style="fill:#ffffff;stroke:#000000;stroke-width:0.927894;stroke-opacity:1"
     transform="matrix(1.1526294,0,0,1.0522881,7.4356317,-24.239023)" /><polygon
     class="st1"
     points="250,605.9 237.9,626.9 225.8,605.9 "
     id="polygon82"
     style="fill:#ffffff;stroke:#000000;stroke-width:0.957418;stroke-opacity:1"
     transform="matrix(1.1043034,0,0,1.0316434,19.316446,-19.429484)" /><polygon
     class="st1"
     points="169.9,525.8 148.9,537.9 169.9,550 "
     id="polygon84"
     style="fill:#ffffff;stroke:#000000;stroke-width:0.931439;stroke-opacity:1"
     transform="matrix(1.0906729,0,0,1.103616,25.290518,-55.527066)" /><polygon
     class="st1"
     points="326.9,537.9 305.9,550 305.9,525.8 "
     id="polygon86"
     style="fill:#ffffff;stroke:#000000;stroke-width:0.849928;stroke-opacity:1"
     transform="matrix(1.2721356,0,0,1.1363784,-37.638888,-73.37047)" /><path
     class="st1"
     d="m 118.06718,139.32355 c -0.31329,0 -0.52215,-0.1 -0.73102,-0.29999 l -3.55068,-3.39991 c -2.08864,-1.99994 -2.71524,-5.09986 -1.56648,-7.79979 C 148.56132,50.125991 229.18278,0.12735867 318.15879,0.02736141 h 53.46916 c 3.96842,0 7.20581,3.09991519 7.31023,6.99980849 v 2.5999288 c 0,0.5999833 -0.41772,0.9999723 -1.04432,0.9999723 h -56.60211 c -88.24499,-0.1 -167.92656,50.398621 -202.28467,128.096499 -0.10445,0.29999 -0.41773,0.49998 -0.73103,0.59998 -0.10444,0 -0.20887,0 -0.20887,0 z M 318.15879,2.0273067 c -88.14055,0.099997 -168.031,49.6986403 -204.06001,126.6965333 -0.83546,1.89995 -0.41773,4.09989 1.14874,5.49985 l 2.50637,2.39993 C 152.84302,58.825753 232.94233,8.5271288 321.39619,8.6271261 h 55.55779 V 7.0271699 c 0,-2.6999261 -2.2975,-4.9998632 -5.2216,-4.9998632 z"
     id="path102"
     style="fill:#000000;stroke-width:1.02191" /><path
     class="st1"
     d="m 408.70129,116.12418 h -48.97858 c -2.29751,0 -4.17727,-1.79995 -4.17727,-3.99989 v -11.69968 c 0,-2.199935 1.87976,-3.999886 4.17727,-3.999886 h 48.97858 c 2.2975,0 4.17728,1.799951 4.17728,3.999886 v 11.69968 c 0,2.19994 -1.87978,3.99989 -4.17728,3.99989 z M 359.72271,98.524666 c -1.14875,0 -2.08864,0.899976 -2.08864,1.999944 v 11.69968 c 0,1.09997 0.93989,1.99995 2.08864,1.99995 h 48.97858 c 1.14876,0 2.08864,-0.89998 2.08864,-1.99995 v -11.69968 c 0,-1.099968 -0.93988,-1.999944 -2.08864,-1.999944 z"
     id="path104"
     style="fill:#000000;stroke-width:1.02191" /><path
     class="st1"
     d="m 281.60761,502.9136 c -22.13957,0 -40.20629,-17.19953 -40.20629,-38.49895 0,-21.19942 17.96229,-38.49894 40.20629,-38.49894 22.13958,0 40.20631,17.19953 40.20631,38.49894 0,21.29942 -17.9623,38.49895 -40.20631,38.49895 z m 0,-74.89795 c -20.99081,0 -38.11765,16.29955 -38.11765,36.499 0,20.09945 17.0224,36.499 38.11765,36.499 20.99083,0 38.11767,-16.29955 38.11767,-36.499 0,-20.19945 -17.02241,-36.499 -38.11767,-36.499 z"
     id="path106"
     style="fill:#000000;stroke-width:1.02191" /><path
     class="st1"
     d="m 281.60761,649.80958 c -22.13957,0 -40.20629,-17.19953 -40.20629,-38.49894 0,-21.29942 17.96229,-38.49895 40.20629,-38.49895 22.13958,0 40.20631,17.19953 40.20631,38.49895 0,21.29941 -17.9623,38.49894 -40.20631,38.49894 z m 0,-74.89795 c -20.99081,0 -38.11765,16.29956 -38.11765,36.499 0,20.19945 17.0224,36.499 38.11765,36.499 21.09526,0 38.11767,-16.29955 38.11767,-36.499 0,0 0,0 0,0 0,-20.19944 -17.02241,-36.499 -38.11767,-36.499 z"
     id="path108"
     style="fill:#000000;stroke-width:1.02191" /><path
     class="st1"
     d="m 358.3651,576.31159 c -22.13958,0 -40.20631,-17.19953 -40.20631,-38.49894 0,-21.19942 17.96231,-38.49895 40.20631,-38.49895 22.244,0 40.20629,17.19953 40.20629,38.49895 v 0 c -0.10444,21.29941 -18.06672,38.49894 -40.20629,38.49894 z m 0,-74.89795 c -20.99083,0 -38.11767,16.29956 -38.11767,36.499 0,20.19945 17.02241,36.49901 38.11767,36.49901 20.99081,0 38.11765,-16.29956 38.11765,-36.49901 0,0 0,0 0,0 -0.10444,-20.19944 -17.12684,-36.499 -38.11765,-36.499 z"
     id="path110"
     style="fill:#000000;stroke-width:1.02191" /><path
     class="st1"
     d="m 204.95457,576.31159 c -22.13958,0 -40.20631,-17.19953 -40.20631,-38.49894 0,-21.19942 17.9623,-38.49895 40.20631,-38.49895 22.244,0 40.20629,17.19953 40.20629,38.49895 v 0 c -0.10444,21.29941 -18.06672,38.49894 -40.20629,38.49894 z m 0,-74.89795 c -20.99082,0 -38.11767,16.29956 -38.11767,36.499 0,20.09945 17.02241,36.49901 38.11767,36.49901 20.99081,0 38.11766,-16.29956 38.11766,-36.49901 0,0 0,0 0,0 -0.10445,-20.19944 -17.12685,-36.499 -38.11766,-36.499 z"
     id="path112"
     style="fill:#000000;stroke-width:1.02191" /><path
     class="st1"
     d="m 361.18475,753.70674 h -46.99436 c -5.74377,0 -10.33877,-4.39988 -10.33877,-9.89973 v -44.99877 c 0,-5.49985 4.595,-9.89973 10.33877,-9.89973 h 46.99436 c 5.74376,0 10.33877,4.39988 10.33877,9.89973 v 44.99877 c 0,5.49985 -4.69944,9.89973 -10.33877,9.89973 z m -46.99436,-62.79828 c -4.59501,0 -8.25014,3.5999 -8.25014,7.89978 v 44.99877 c 0,4.39988 3.75955,7.89978 8.25014,7.89978 h 46.99436 c 4.59501,0 8.25013,-3.5999 8.25013,-7.89978 v -44.99877 c 0,-4.39988 -3.75954,-7.89978 -8.25013,-7.89978 z"
     id="path114"
     style="fill:#000000;stroke-width:1.02191" /><path
     class="st1"
     d="m 337.68757,741.70707 c -11.80081,0 -21.30412,-9.19975 -21.30412,-20.39944 0,-11.2997 9.60775,-20.39945 21.30412,-20.39945 11.80081,0 21.30412,9.19975 21.30412,20.39945 0,0 0,0 0,0 0,11.29969 -9.50331,20.39944 -21.30412,20.39944 z m 0,-38.89894 c -10.65206,0 -19.21548,8.29977 -19.21548,18.3995 0,10.09972 8.66785,18.39949 19.21548,18.39949 10.65205,0 19.21548,-8.29977 19.21548,-18.39949 0,-10.09973 -8.56343,-18.2995 -19.21548,-18.3995 z"
     id="path116"
     style="fill:#000000;stroke-width:1.02191" /><path
     class="st1"
     d="m 215.71106,260.22024 h -12.84513 c -0.6266,0 -1.04432,-0.39999 -1.04432,-0.99997 0,0 0,0 0,0 1.77534,-39.59892 34.88026,-71.29805 76.23531,-72.998 0.31331,0 0.52217,0.1 0.73103,0.29999 0.20887,0.19999 0.31329,0.39999 0.31329,0.69998 v 12.29966 c 0,3.49991 -2.71523,6.39983 -6.26591,6.89981 -25.79469,3.6999 -46.15892,23.09937 -50.0229,47.89869 -0.41773,3.29991 -3.44626,5.89984 -7.10137,5.89984 z m -11.69638,-1.99994 h 11.69638 c 2.61079,0 4.80387,-1.79995 5.11716,-4.29989 4.07284,-25.5993 25.06367,-45.69875 51.79825,-49.59864 2.6108,-0.29999 4.49057,-2.39993 4.49057,-4.89986 v -11.1997 c -39.05755,2.09994 -70.90929,32.59911 -73.10236,69.99809 z"
     id="path118"
     style="fill:#000000;stroke-width:1.02191" /><path
     class="st1"
     d="m 278.16136,338.91809 v 0 c -41.35505,-1.69995 -74.45998,-33.39909 -76.23532,-72.998 0,-0.59999 0.41773,-0.99998 1.04432,-0.99998 0,0 0,0 0,0 h 12.84512 c 3.65513,0 6.68365,2.59993 7.20582,5.99984 3.86398,24.69932 24.12377,44.19879 50.0229,47.89869 3.55068,0.49998 6.26591,3.39991 6.26591,6.89981 v 12.29966 c -0.10444,0.49999 -0.62659,0.89998 -1.14875,0.89998 z m -74.14668,-71.99803 c 2.2975,37.39898 34.04481,67.79814 73.10236,69.99808 v -11.19969 c 0,-2.49993 -1.87977,-4.59987 -4.49057,-4.89987 -26.73458,-3.89989 -47.72541,-23.99934 -51.79825,-49.59864 -0.31329,-2.49993 -2.50637,-4.29988 -5.11716,-4.29988 z"
     id="path120"
     style="fill:#000000;stroke-width:1.02191" /><path
     class="st1"
     d="m 285.1583,338.91809 c -0.62659,0 -1.04432,-0.39999 -1.04432,-0.99997 v -12.29967 c 0,-3.4999 2.71523,-6.39982 6.26592,-6.89981 25.79469,-3.6999 46.15891,-23.09937 50.0229,-47.89869 0.52216,-3.39991 3.55069,-5.99983 7.2058,-5.99983 h 12.84514 c 0.62659,0 1.04432,0.39999 1.04432,0.99997 0,0 0,0 0,0 -1.87978,39.69891 -34.98471,71.39805 -76.33976,73.098 z m 62.34587,-71.99803 c -2.6108,0 -4.80386,1.79995 -5.11717,4.29988 -4.07284,25.5993 -25.06366,45.69875 -51.79824,49.59864 -2.6108,0.3 -4.49058,2.39994 -4.49058,4.89987 v 11.19969 c 39.05756,-2.19994 70.80487,-32.5991 73.10237,-69.99808 z"
     id="path122"
     style="fill:#000000;stroke-width:1.02191" /><path
     class="st1"
     d="m 360.3493,260.22024 h -12.84513 c -3.65512,0 -6.68364,-2.59993 -7.20581,-5.99983 -3.86397,-24.69933 -24.12377,-44.19879 -50.0229,-47.89869 -3.55069,-0.49999 -6.26591,-3.39991 -6.26591,-6.89981 v -12.29967 c 0,-0.29999 0.10444,-0.49998 0.31329,-0.69998 0.20887,-0.19999 0.52217,-0.29999 0.73102,-0.29999 41.35505,1.69995 74.45998,33.39909 76.23533,72.998 0.10444,0.59999 -0.3133,1.09997 -0.93989,1.09997 0,0 0,0 0,0 z m -74.14668,-71.99803 v 11.1997 c 0,2.49993 1.87978,4.59987 4.49057,4.89986 26.73458,3.89989 47.7254,23.99934 51.79825,49.59864 0.31329,2.49994 2.50637,4.29989 5.11716,4.29989 h 11.69638 c -2.29751,-37.39898 -34.14924,-67.89815 -73.10236,-69.99809 z"
     id="path124"
     style="fill:#000000;stroke-width:1.02191" /><path
     class="st1"
     d="m 281.60761,339.01809 c -1.25318,0 -2.40193,0 -3.55069,-0.1 -0.52215,0 -0.93988,-0.49999 -0.93988,-0.99997 v -12.29967 c 0,-2.49993 -1.87977,-4.59987 -4.49057,-4.89986 -26.73458,-3.8999 -47.72541,-23.99935 -51.79825,-49.59865 -0.31329,-2.49993 -2.50637,-4.29988 -5.11716,-4.29988 h -12.84513 c -0.52216,0 -1.04432,-0.39999 -1.04432,-0.89997 -0.10444,-1.09997 -0.10444,-2.19994 -0.10444,-3.39991 0,-1.19997 0,-2.29994 0.10444,-3.39991 0,-0.49998 0.52216,-0.89997 1.04432,-0.89997 h 12.84513 c 2.61079,0 4.80387,-1.79995 5.11716,-4.29989 4.07284,-25.5993 25.06367,-45.69875 51.79825,-49.59864 2.6108,-0.29999 4.49057,-2.39993 4.49057,-4.89986 v -12.29967 c 0,-0.49998 0.41773,-0.99997 0.93988,-0.99997 2.40195,-0.1 4.69945,-0.1 7.10138,0 0.52215,0 0.93988,0.49999 0.93988,0.99997 v 12.29967 c 0,2.49993 1.87978,4.59987 4.49058,4.89986 26.73458,3.89989 47.7254,23.99934 51.79824,49.59864 0.31331,2.49994 2.50637,4.29989 5.11717,4.29989 h 12.84513 c 0.52216,0 1.04432,0.39999 1.04432,0.89997 0.10445,1.09997 0.10445,2.19994 0.10445,3.39991 0,1.19997 0,2.29994 -0.10445,3.39991 0,0.49998 -0.52216,0.89997 -1.04432,0.89997 h -12.84513 c -2.6108,0 -4.80386,1.79995 -5.11717,4.29988 -4.07284,25.5993 -25.06366,45.69875 -51.79824,49.59865 -2.6108,0.29999 -4.49058,2.39993 -4.49058,4.89986 v 12.29967 c 0,0.49998 -0.41773,0.99997 -0.93988,0.99997 -1.14875,0.1 -2.2975,0.1 -3.55069,0.1 z m -2.40193,-1.99995 c 1.56648,0.1 3.23739,0.1 4.9083,0 v -11.29969 c 0,-3.4999 2.71523,-6.39983 6.26592,-6.89981 25.79469,-3.6999 46.15891,-23.09937 50.0229,-47.89869 0.52216,-3.39991 3.55069,-5.99984 7.2058,-5.99984 h 11.80082 c 0,-0.79997 0,-1.49996 0,-2.29993 0,-0.79998 0,-1.59996 0,-2.29994 h -11.90525 c -3.65512,0 -6.68364,-2.59993 -7.20581,-5.99984 -3.86397,-24.69932 -24.12377,-44.19879 -50.0229,-47.89869 -3.55069,-0.49998 -6.26591,-3.3999 -6.26591,-6.89981 v -11.29969 c -1.56648,-0.1 -3.23739,-0.1 -4.90831,0 v 11.29969 c 0,3.49991 -2.71523,6.39983 -6.26591,6.89981 -25.79469,3.6999 -46.15892,23.09937 -50.0229,47.89869 -0.52216,3.39991 -3.55069,5.99984 -7.20581,5.99984 h -11.8008 c 0,0.79998 0,1.49996 0,2.29994 0,0.79997 0,1.59995 0,2.29993 h 11.8008 c 3.65512,0 6.68365,2.59993 7.20581,5.99984 3.86398,24.69932 24.12378,44.19879 50.0229,47.89869 3.55068,0.49998 6.26591,3.39991 6.26591,6.89981 z"
     id="path126"
     style="fill:#000000;stroke-width:1.02191" /><path
     style="fill:#1a1a1a;fill-opacity:1;stroke:#000000;stroke-width:1.0219;stroke-opacity:1"
     d="m 198.19516,574.2909 c -15.38349,-3.25257 -25.95712,-12.70543 -30.33142,-27.11643 -1.02961,-3.39209 -1.27072,-6.2694 -0.97655,-11.65524 0.35271,-6.45812 0.70955,-7.76782 3.68171,-13.51235 11.85527,-22.91368 42.48906,-27.92724 61.21311,-10.01819 20.28308,19.4002 12.53105,51.86294 -14.51375,60.77843 -5.42371,1.78795 -14.42314,2.50694 -19.0731,1.52378 z m 13.15701,-36.29363 c 0,-7.35054 -0.18911,-13.36459 -0.42025,-13.36459 -0.93572,0 -24.35827,13.18054 -24.01195,13.51222 0.69391,0.66456 23.23061,13.11323 23.83416,13.16534 0.32892,0.0284 0.59804,-5.96245 0.59804,-13.31297 z"
     id="path179" /><path
     style="fill:#1a1a1a;fill-opacity:1;stroke:#000000;stroke-width:1.0219;stroke-opacity:1"
     d="m 275.97323,500.58458 c -7.22355,-0.86482 -15.70902,-4.99794 -21.3932,-10.42023 -15.23153,-14.52976 -15.20507,-36.85608 0.061,-51.41874 24.04879,-22.9408 65.02824,-6.95298 65.02824,25.37025 0,10.34853 -3.62271,18.75313 -11.19824,25.9796 -8.70996,8.30868 -20.07383,11.97652 -32.49776,10.48912 z m 19.40564,-30.69195 c -0.9588,-2.3835 -13.3598,-22.35037 -13.87774,-22.34459 -0.47144,0.005 -6.14553,9.05274 -12.48803,19.91247 l -2.10503,3.60429 h 14.47116 c 12.72283,0 14.4142,-0.1416 13.99964,-1.17217 z"
     id="path181" /><path
     style="fill:#1a1a1a;fill-opacity:1;stroke:#000000;stroke-width:1.0219;stroke-opacity:1"
     d="m 272.53656,646.99127 c -13.49596,-3.46645 -24.18037,-13.73471 -27.69957,-26.62069 -6.18497,-22.64695 12.09886,-45.21753 36.71774,-45.32639 7.77722,-0.0344 11.79228,0.91309 18.90218,4.46059 17.65125,8.8071 24.90594,30.39085 16.09038,47.87114 -7.87653,15.61825 -26.77667,24.04195 -44.01073,19.61535 z m 16.9385,-30.06065 c 3.81619,-6.3018 6.77368,-11.61502 6.5722,-11.80718 -0.20148,-0.19215 -6.69052,-0.25571 -14.42009,-0.14122 l -14.05376,0.20813 6.96166,11.58745 c 3.82892,6.37309 7.19562,11.59265 7.48156,11.59903 0.28594,0.006 3.64223,-5.14443 7.45843,-11.44621 z"
     id="path185" /><path
     style="fill:#1a1a1a;fill-opacity:1;stroke:#000000;stroke-width:1.02191;stroke-opacity:1"
     d="m 354.66291,574.25572 c -0.36006,-0.0389 -1.69922,-0.27074 -2.97591,-0.51536 -11.73653,-2.24886 -21.84988,-9.70152 -27.3338,-20.14265 -2.95374,-5.62382 -4.38915,-12.18359 -3.92542,-17.93903 1.19281,-14.80395 11.83221,-27.74142 26.75347,-32.53214 9.14204,-2.93521 18.8447,-2.18501 27.91454,2.15837 9.07748,4.34703 16.17424,12.11064 19.46973,21.29914 5.49187,15.31255 -0.74723,32.16938 -15.38313,41.56221 -6.26024,4.01762 -13.95006,6.28217 -21.08307,6.20867 -1.52995,-0.0157 -3.07633,-0.0604 -3.43641,-0.0993 z m -0.69676,-23.0849 c 0.74329,-0.35814 3.16112,-1.62044 5.37298,-2.80508 9.05181,-4.84812 16.33257,-9.16785 16.9346,-10.04743 0.29187,-0.42641 0.29323,-0.49756 0.0173,-0.90065 -0.90811,-1.32675 -22.46052,-13.529 -23.89581,-13.529 -0.27074,0 -0.59066,0.1135 -0.71096,0.25224 -0.43204,0.49836 -0.62353,4.78489 -0.62065,13.8935 0.003,9.06134 0.18592,13.03391 0.62392,13.53914 0.33504,0.38644 0.81795,0.30109 2.27859,-0.40272 z"
     id="path187" /><path
     style="fill:#333333;fill-opacity:1;stroke:#000000;stroke-width:1.02191;stroke-opacity:1"
     d="m 333.88597,739.1044 c -1.0611,-0.21912 -3.10748,-0.94768 -4.54753,-1.61901 -2.18695,-1.01953 -3.00883,-1.59459 -4.98921,-3.49087 -1.98204,-1.89786 -2.57978,-2.68152 -3.64406,-4.77735 -2.78466,-5.48374 -2.78423,-10.55685 10e-4,-16.08528 1.0582,-2.10016 1.63254,-2.85249 3.63519,-4.76186 3.79054,-3.61395 8.07002,-5.33965 13.26492,-5.34906 8.72159,-0.0158 16.37805,5.71563 18.60155,13.92467 0.54646,2.01749 0.56403,6.16553 0.0354,8.34777 -1.53591,6.3399 -6.58813,11.44897 -13.26257,13.41175 -2.55778,0.75218 -6.53956,0.92696 -9.09505,0.39924 z"
     id="path189" /><path
     style="fill:#1a1a1a;fill-opacity:1;stroke:#000000;stroke-width:1.02191;stroke-opacity:1"
     d="m 312.23717,751.29301 c -1.67031,-0.43596 -3.07826,-1.29844 -4.23859,-2.59645 -1.89298,-2.11761 -1.81115,-0.87986 -1.81115,-27.3965 0,-26.73329 -0.10147,-25.30619 1.95974,-27.54848 0.6089,-0.66237 1.78793,-1.51483 2.66648,-1.92794 l 1.57495,-0.74056 h 25.22386 25.22385 l 1.85547,0.87466 c 1.31299,0.61893 2.139,1.23024 2.82534,2.09094 1.86651,2.34067 1.80398,1.33091 1.72121,27.7996 -0.0744,23.78422 -0.0765,23.86692 -0.66696,25.0898 -0.75545,1.56482 -2.36193,3.10308 -4.10462,3.93033 l -1.36641,0.64862 -24.80466,0.0516 c -19.02118,0.0396 -25.09701,-0.0247 -26.05851,-0.27564 z m 28.49943,-9.6805 c 11.07318,-1.53282 18.89275,-10.66777 18.28082,-21.35597 -0.19249,-3.36203 -0.69873,-5.27062 -2.13819,-8.06116 -4.79588,-9.2973 -16.151,-13.67718 -26.42954,-10.19435 -2.884,0.97723 -4.89651,2.16757 -7.33985,4.34134 -3.1867,2.83509 -5.34366,6.34618 -6.31029,10.27188 -0.52963,2.15095 -0.52963,7.22068 0,9.37161 0.96256,3.90914 3.08514,7.3743 6.27981,10.25193 2.30673,2.07781 4.34927,3.31659 7.01933,4.25718 3.55723,1.25312 7.02599,1.61752 10.63791,1.11754 z"
     id="path191" /><path
     style="fill:#1a1a1a;fill-opacity:1;stroke:#1a1a1a;stroke-width:1.02191;stroke-opacity:1"
     d="m 279.38584,330.36363 c 0,-6.02013 -0.0482,-6.51795 -0.76316,-7.87102 -1.10868,-2.09845 -3.08338,-3.39468 -5.90367,-3.87527 -15.72812,-2.68014 -28.71435,-10.14978 -38.13709,-21.93632 -5.18958,-6.49144 -9.22206,-15.11056 -10.84912,-23.18917 -0.87174,-4.32828 -1.46185,-5.65876 -3.10839,-7.00829 -1.85095,-1.51707 -3.45048,-1.79247 -10.41066,-1.79247 h -6.12453 v -2.11101 -2.11101 h 6.5473 c 6.40076,0 6.58762,-0.0192 8.34881,-0.85961 2.55277,-1.21808 3.46902,-2.74056 4.41056,-7.32886 4.77178,-23.25339 23.38787,-40.97567 47.65453,-45.36649 4.34572,-0.78632 5.82143,-1.57201 7.21434,-3.84103 0.94491,-1.53923 0.95228,-1.59536 1.06642,-8.12655 l 0.11495,-6.57661 h 2.17448 2.17448 v 6.2748 c 0,6.20174 0.0108,6.29529 0.93273,8.03607 1.38507,2.61543 2.76823,3.37634 7.90138,4.34672 20.2381,3.82582 36.64367,16.9835 44.1592,35.41677 1.09009,2.67368 2.02984,5.93149 3.46538,12.01339 0.61516,2.6062 1.74786,4.16451 3.76276,5.17661 1.20231,0.60394 2.03792,0.68256 8.20689,0.77217 l 6.86827,0.0998 v 2.09245 2.09243 h -6.5473 c -6.40076,0 -6.58762,0.0192 -8.34881,0.85961 -2.29939,1.09718 -3.54925,2.90215 -4.08171,5.89457 -4.24095,23.83387 -23.20916,42.326 -48.00902,46.80402 -4.44202,0.80208 -5.9714,1.66033 -7.27371,4.08182 -0.82845,1.54039 -0.87154,1.89296 -0.98194,8.03511 l -0.11546,6.42402 h -2.17395 -2.17396 z"
     id="path1082" /><path
     style="fill:#1a1a1a;fill-opacity:1;stroke:#4d4d4d;stroke-width:1.02191"
     d="m 204.21122,257.30255 c 0.0967,-0.49121 0.27164,-1.91615 0.38867,-3.16651 0.36097,-3.85671 1.81572,-10.12015 3.42472,-14.74513 8.37691,-24.07904 29.34623,-42.70347 55.08087,-48.92148 3.26242,-0.78827 7.91773,-1.54875 11.78629,-1.92539 l 2.11985,-0.20638 v 5.87244 c 0,8.54242 -0.40249,9.15397 -6.82831,10.37534 -19.2438,3.65769 -35.15981,15.25163 -43.77807,31.88987 -2.66309,5.1413 -4.32961,10.08829 -5.71636,16.96864 -0.47858,2.37453 -1.89903,3.99839 -3.88063,4.43637 -0.74619,0.16492 -3.92534,0.30334 -7.06482,0.3076 l -5.70811,0.008 z"
     id="path1084" /><path
     style="fill:#1a1a1a;fill-opacity:1;stroke:#4d4d4d;stroke-width:1.02191"
     d="m 273.11111,336.412 c -28.19444,-3.04748 -53.04441,-21.35701 -63.62174,-46.87671 -2.48772,-6.00205 -4.40825,-13.35751 -4.88561,-18.71145 -0.11758,-1.31883 -0.28732,-2.73796 -0.37718,-3.15361 l -0.16338,-0.75572 6.60301,0.10618 c 6.0424,0.0972 6.68244,0.16303 7.53867,0.77579 1.65072,1.18134 2.12908,2.17145 3.02099,6.25295 1.27373,5.82878 2.56248,9.35832 5.41749,14.8371 2.98574,5.72961 5.92551,9.77858 10.29634,14.18122 9.00206,9.06755 20.56965,15.1647 33.13742,17.46636 3.79525,0.69506 4.8366,1.16543 6.0656,2.73976 0.64038,0.82031 0.70816,1.42756 0.80425,7.20608 0.0985,5.92205 0.0671,6.30768 -0.50875,6.26781 -0.33755,-0.0233 -1.83474,-0.17446 -3.32711,-0.33576 z"
     id="path1086" /><path
     style="fill:#1a1a1a;fill-opacity:1;stroke:#4d4d4d;stroke-width:1.02191"
     d="m 346.11508,257.73147 c -2.49637,-0.85298 -2.94349,-1.58499 -3.98149,-6.51837 -3.83042,-18.20529 -16.08707,-33.45906 -33.40922,-41.57872 -5.03016,-2.35786 -8.96244,-3.67034 -14.07571,-4.69807 -4.93122,-0.99112 -6.44426,-1.58667 -7.36892,-2.90052 -0.73623,-1.0461 -0.77126,-1.38129 -0.77126,-7.38086 0,-3.45676 0.12027,-6.28501 0.26727,-6.28501 0.147,0 2.0167,0.20925 4.15488,0.46501 12.49911,1.49505 23.8689,5.62963 34.24368,12.45256 4.5634,3.0011 7.74467,5.60675 12.08989,9.90232 9.7163,9.60527 16.19555,20.66657 19.61197,33.48133 0.97364,3.65207 2.21553,10.8857 2.21553,12.90478 0,0.58642 -0.31467,0.61899 -5.85074,0.6055 -3.99921,-0.01 -6.25429,-0.15214 -7.12588,-0.44995 z"
     id="path1088" /><path
     style="fill:#1a1a1a;fill-opacity:1;stroke:#4d4d4d;stroke-width:1.02191"
     d="m 286.22816,330.48009 c 0.10126,-5.77334 0.17023,-6.38638 0.81004,-7.20609 1.2351,-1.58239 2.26807,-2.0292 6.61273,-2.86034 24.528,-4.69223 43.75292,-23.31299 48.49494,-46.97094 0.69735,-3.47906 1.19824,-4.47835 2.83017,-5.64624 0.85625,-0.61278 1.49627,-0.67863 7.54081,-0.77581 l 6.60515,-0.10621 -0.20459,1.73006 c -1.24386,10.51828 -3.44542,17.98371 -7.7891,26.41265 -11.67375,22.65304 -34.39321,38.14093 -60.53685,41.26806 -2.13819,0.25576 -4.01955,0.46501 -4.18081,0.46501 -0.16127,0 -0.24338,-2.83957 -0.18249,-6.31015 z"
     id="path1090" /><path
     style="fill:#1a1a1a;fill-opacity:1;stroke:#000000;stroke-width:1.0219;stroke-opacity:1"
     d="m 358.57614,113.48192 c -0.57758,-0.55306 -0.70304,-1.83748 -0.70304,-7.19712 0,-4.50295 0.1663,-6.683163 0.53687,-7.037993 0.40484,-0.38765 6.72376,-0.514086 25.69347,-0.514086 22.27308,0 25.23716,0.0772 25.85963,0.673201 0.57611,0.551645 0.70306,1.823588 0.70306,7.044308 0,6.09808 -0.0426,6.39968 -0.99435,7.038 -0.87081,0.58404 -4.06294,0.66689 -25.69347,0.66689 -21.8572,0 -24.78,-0.0775 -25.40217,-0.6732 z"
     id="path1092" /><path
     style="fill:#000000;fill-opacity:1;stroke:#4d4d4d;stroke-width:1.0219"
     d="m 115.64159,134.21281 c -2.45758,-2.74921 -2.28636,-3.66259 2.36728,-12.62762 C 129.25424,99.921448 142.68238,81.994779 160.33138,65.084315 193.06717,33.71838 235.087,12.860802 280.70735,5.3327612 296.44583,2.7356743 297.97953,2.6577124 337.13992,2.4641647 l 36.31019,-0.1794611 1.41078,1.207116 c 1.01059,0.8646894 1.48163,1.7129191 1.66051,2.9901602 l 0.2497,1.7830432 -35.28627,0.1941427 c -37.85752,0.2082893 -40.48333,0.3350918 -55.61576,2.6857283 -40.09351,6.22803 -76.12211,22.039265 -107.87092,47.339398 -7.09329,5.652531 -20.32816,18.330668 -26.34279,25.234619 -8.73427,10.025756 -17.20936,21.675959 -23.54365,32.364009 -3.21319,5.42173 -10.04428,18.64945 -10.04428,19.44973 0,0.9106 -0.84104,0.45302 -2.42584,-1.31984 z"
     id="path1094" /><path
     style="fill:#000000;fill-opacity:1;stroke:#000000;stroke-width:1.02191;stroke-opacity:1"
     d="m 449.27101,615.99424 c 0,-216.01898 -0.0224,-633.968705 0.13261,-525.95921 0.15502,108.00948 0.3043,614.33061 0.14927,722.34009 -0.0419,29.20539 -0.0948,43.19894 -0.13053,45.04668 -0.0967,4.98571 -0.15135,-83.81938 -0.15135,-241.42756 z"
     id="path1150"
     sodipodi:nodetypes="sssss" /><path
     style="fill:#1a1a1a;fill-opacity:1;stroke:#000000;stroke-width:1.02191;stroke-opacity:1"
     d="m 451.54913,903.16665 c -1.54855,-2.11696 -0.86944,-44.16652 -0.86944,-417.60412 0,-373.4376 -0.84755,-415.186058 0.701,-417.303026 1.43689,-1.964331 3.56004,-2.252584 8.86128,-2.252584 1.84944,0 4.01193,-0.08796 5.66969,0.21087 1.46851,0.264709 3.30723,2.037971 3.64952,2.365734 0.51717,0.495203 0.33596,4.318237 0.4591,16.367742 0.11603,11.353085 -0.23242,28.988464 -0.23242,55.335814 0,44.70512 0.63646,61.7618 0.14203,69.78679 -0.26882,4.36316 -1.23744,6.13483 -1.98536,8.04895 -1.21243,3.10296 -4.03488,8.15577 -5.85876,10.9096 l -3.31612,5.00694 0.41619,40.34658 c 0.388,37.61401 -0.22395,39.04971 1.70795,41.67303 1.13666,1.54346 3.07806,6.13475 4.82592,9.33287 l 3.17794,5.81478 1.37102,7.93128 -0.0738,19.78699 -0.11212,15.79913 -0.22068,97.91145 c -0.2099,93.12851 1.30662,126.68661 -0.29263,141.08968 -0.46197,4.16055 -1.69318,6.51571 -2.38332,8.50184 -0.94527,2.72038 -2.18542,4.9077 -4.01703,7.82023 l -3.82288,6.07894 0.396,15.57254 0.11561,25.06551 c 0.12232,26.52408 0.60623,40.42575 1.34711,40.86419 0.62238,0.36832 2.81155,4.04101 4.51746,8.44929 l 3.46981,8.96647 1.14594,9.02329 -0.19965,15.86696 -0.19782,57.86352 c -0.21158,61.8834 0.44258,84.47453 -0.49042,85.55101 -0.81082,0.93551 -4.67627,2.42756 -8.79523,2.42756 -5.38973,0 -7.6645,-0.63934 -9.1059,-2.60985 z"
     id="path1152"
     sodipodi:nodetypes="ssssssssssscsssccccssssccssscccsssss" /><path
     style="fill:#1a1a1a;fill-opacity:1;stroke:#000000;stroke-width:1.02191;stroke-opacity:1"
     d="m 439.24011,464.9465 0.0263,-5.22065 0.37206,-387.012515 h 4.41648 4.41648 V 464.9465 l 1.16668,392.95739 -5.56143,0.1826 -5.09063,-0.1826 z"
     id="path1154"
     sodipodi:nodetypes="cccccccccc" /><path
     style="fill:#00bbdb;fill-opacity:1;stroke:#000000;stroke-width:1.02191;stroke-opacity:1"
     d="m 461.23008,273.35281 v -38.63188 h 3.1767 c 1.82166,0 3.74578,0.88541 4.51084,2.07567 1.81462,2.82314 1.81462,70.28927 0,73.11239 -0.76506,1.19029 -2.68918,2.07568 -4.51084,2.07568 h -3.1767 z"
     id="path1156" /><path
     style="fill:#00bbdb;fill-opacity:1;stroke:#000000;stroke-width:1.02191;stroke-opacity:1"
     d="m 461.23008,676.17286 v -38.66297 h 3.17872 c 1.8228,0 3.74814,0.8861 4.5137,2.07735 1.81575,2.82539 1.81575,70.34585 0,73.17125 -0.76556,1.19126 -2.6909,2.07734 -4.5137,2.07734 h -3.17872 z"
     id="path1158" /><path
     style="opacity:1;fill:#1a1a1a;fill-opacity:1;stroke:#4d4d4d;stroke-width:1"
     d=""
     id="path1502" /></g><ellipse
   transform="scale(-1,1)"
   id="path4030"
   style="fill:#2e2f31;fill-opacity:1;stroke:#000000;stroke-width:1.05826;stroke-linecap:round;stroke-linejoin:round;stroke-miterlimit:4;stroke-dasharray:none;stroke-opacity:1"
   cx="-776.85968"
   cy="861.02374"
   rx="17.253618"
   ry="14.10465" /><path
   inkscape:connector-curvature="0"
   id="path4038"
   d="m 666.60132,538.8782 v 45.92536"
   style="fill:none;stroke:#000000;stroke-width:1.05826px;stroke-linecap:butt;stroke-linejoin:miter;stroke-opacity:1" /><path
   sodipodi:nodetypes="cc"
   inkscape:connector-curvature="0"
   id="path4040"
   d="M 674.53995,544.81141 V 581.2765"
   style="fill:none;stroke:#000000;stroke-width:1.05826px;stroke-linecap:butt;stroke-linejoin:miter;stroke-opacity:1" /><path
   inkscape:connector-curvature="0"
   id="path4062"
   d="m 763.62882,561.33583 c 0.17803,-2.39237 1.04565,-4.19406 2.63101,-5.461 1.18018,-0.94328 2.79616,-1.60707 4.68866,-1.92579 0.4327,-0.0728 1.21738,-0.17753 1.22896,-0.16353 0,0.005 0.10434,0.85515 0.22592,1.89249 0.12115,1.0373 0.22983,1.93948 0.24149,2.0049 0.0186,0.10452 0.01,0.11876 -0.0577,0.11876 -0.13607,0 -0.74159,0.12322 -1.18757,0.24143 -2.12186,0.56316 -3.25605,1.70311 -3.5116,3.52928 -0.0581,0.4196 0.26928,1.2032 0.35258,1.59395 0.21914,1.03197 0.61332,1.44908 1.39524,1.9605 0.61057,0.3994 0.94145,0.63238 1.71325,0.63394 0.54988,0 0.89035,-0.17702 1.25508,-0.34917 0.2508,-0.11875 0.61055,-0.72407 0.81167,-0.97123 0.47975,-0.58997 0.64207,-0.18167 1.49403,-2.91425 0.53216,-1.70728 0.85078,-2.52118 1.33365,-3.40697 0.65395,-1.19953 1.51873,-2.06971 2.70324,-2.71961 0.65259,-0.35813 1.49369,-0.64228 2.29278,-0.77466 0.37988,-0.0633 0.54896,-0.0718 1.32709,-0.0711 0.77138,7.5e-4 0.94298,0.01 1.27012,0.0705 1.91533,0.34982 3.52225,1.32774 4.46364,2.7164 0.42307,0.62399 0.77569,1.43183 0.97435,2.23204 0.43621,1.75654 0.34856,4.08319 -0.21547,5.72502 -0.26004,0.75752 -0.70616,1.54697 -1.19088,2.10799 -0.33351,0.38574 -1.16218,1.06281 -1.63812,1.33831 -0.76166,0.44086 -1.42456,1.08213 -2.36684,1.24385 -0.47635,0.0817 -1.4225,-0.14168 -1.72176,-0.14168 h -0.17616 l -2.2e-4,-0.18228 c -2e-4,-0.10005 -0.0436,-0.9739 -0.0969,-1.94145 -0.0534,-0.96759 -0.0964,-1.80944 -0.0964,-1.87093 l -1e-4,-0.11166 0.33924,-0.0566 c 0.76053,-0.12657 0.71982,-0.69148 1.1814,-1.00835 0.89898,-0.61698 1.76866,-1.59886 1.76813,-3.10564 -3.3e-4,-0.99241 -0.29855,-1.23774 -0.69532,-1.90039 -0.46037,-0.76888 -0.58762,-0.63393 -1.40076,-0.66872 -0.60507,-0.0264 -0.67487,0.54815 -1.09743,0.86385 -0.67585,0.50502 -0.73363,0.2687 -1.49691,2.7475 -0.59426,1.92969 -1.81055,3.72663 -2.26669,4.67646 -0.81023,1.68729 -1.63744,1.88683 -3.25263,2.5411 -0.96605,0.3913 -1.85597,0.56335 -3.14058,0.60723 -1.52512,0.0524 -2.92595,-0.2459 -4.26469,-0.9069 -1.49652,-0.73896 -2.56727,-1.88336 -3.1782,-3.39681 -0.53252,-1.31944 -0.76613,-3.07521 -0.63811,-4.79688 v 0 z"
   style="fill:#000000;stroke:#000000;stroke-width:0.0141502;stroke-linecap:round;stroke-linejoin:round;stroke-miterlimit:4;stroke-dasharray:none;stroke-opacity:1"
   sodipodi:nodetypes="csscccscccsccsccscscsssscsscscscsssscsssscssscc" /><path
   inkscape:connector-curvature="0"
   id="path4064"
   d="m 776.93284,971.67063 h 12.54303 l -8.2e-4,4.47724 c -4.5e-4,2.46237 -0.0191,4.85375 -0.0385,5.31431 -0.13451,3.00944 -0.63618,4.32251 -2.08532,5.45953 -1.61203,1.26473 -4.08898,1.7895 -6.54919,1.38746 -1.37072,-0.22401 -2.5769,-0.78621 -3.49752,-1.63015 -0.84588,-0.7753 -1.50723,-2.02177 -1.77321,-3.34129 -0.0591,-0.29279 -0.0726,-0.32335 -0.11856,-0.26948 -0.0286,0.0337 -0.22487,0.27471 -0.43638,0.53623 -0.88759,1.098 -1.64457,1.72391 -3.15506,2.60881 -0.87653,0.51344 -1.31266,0.74325 -4.6178,2.43432 l -2.79453,1.42984 -0.007,-2.4428 c -0.005,-1.92833 2.9e-4,-2.45039 0.0382,-2.47919 0.0259,-0.0215 1.50569,-0.8352 3.28629,-1.81107 5.14351,-2.81918 5.72593,-3.17074 6.33562,-3.82465 0.60489,-0.64858 0.75501,-1.16971 0.78779,-2.73788 l 0.0186,-0.99053 h -5.23914 -5.23936 v -2.06041 -2.06029 z m 1.95913,9.28706 c 0.0454,0.67297 0.12757,1.26779 0.20958,1.52498 0.24821,0.77651 0.98713,1.38438 1.96166,1.61382 0.36369,0.0855 1.28558,0.12135 1.68908,0.0653 0.97849,-0.13531 1.6597,-0.53745 2.07192,-1.22327 0.39529,-0.65774 0.42295,-0.95998 0.42445,-4.6515 l 8.8e-4,-2.49602 h -3.19881 -3.19881 l 6e-5,2.29007 c 0,1.25941 0.0193,2.55377 0.0395,2.87634 z"
   style="fill:#000000;stroke:#000000;stroke-width:0.0141502;stroke-linecap:round;stroke-linejoin:round;stroke-miterlimit:4;stroke-dasharray:none;stroke-opacity:1" /><path
   inkscape:connector-curvature="0"
   id="path4066"
   d="m 763.93362,960.72876 c 0.30221,-3.13466 1.6469,-5.14879 4.28594,-6.4205 1.05885,-0.51005 2.76879,-0.96109 4.10629,-1.08306 l 0.23978,-0.0214 0.0226,0.10784 c 0.0416,0.19793 0.4699,3.9083 0.45291,3.92209 -0.007,0.007 -0.19255,0.0441 -0.40755,0.0822 -0.21515,0.0376 -0.60269,0.12632 -0.86151,0.19649 -2.00538,0.54474 -3.11333,1.57111 -3.47547,3.21974 -0.11064,0.50406 -0.12031,1.60811 -0.0156,2.14039 0.1363,0.71046 0.36046,1.25023 0.69636,1.67457 0.46076,0.58233 1.10622,1.01949 1.79868,1.21827 0.3917,0.11235 1.17769,0.14483 1.56723,0.0645 0.76485,-0.15761 1.26507,-0.53485 1.72198,-1.29892 0.32049,-0.53581 0.5444,-1.14686 1.25981,-3.44007 0.65146,-2.08846 1.00249,-2.93424 1.64477,-3.96421 0.61323,-0.98333 1.45053,-1.75596 2.52072,-2.32618 1.13792,-0.60638 2.42996,-0.88857 3.85337,-0.84167 1.22648,0.0405 2.36368,0.34693 3.39837,0.91601 0.76085,0.41876 1.29661,0.85894 1.81758,1.4939 1.06177,1.29419 1.58876,3.0061 1.58825,5.16009 -5.8e-4,2.40119 -0.59155,4.22172 -1.80684,5.56541 -0.3142,0.3475 -0.98218,0.89352 -1.40714,1.1504 -1.14815,0.69382 -2.43847,1.07822 -3.98188,1.18609 -0.2368,0.0168 -0.43564,0.0262 -0.44168,0.0215 -0.0161,-0.0141 -0.23877,-4.13621 -0.2245,-4.14897 0.007,-0.007 0.1677,-0.0386 0.3585,-0.0726 1.07591,-0.19176 1.94159,-0.57717 2.42567,-1.0802 0.37468,-0.38917 0.62782,-0.8942 0.77025,-1.53646 0.11371,-0.51331 0.12461,-1.67155 0.0186,-2.21405 -0.1627,-0.84979 -0.52175,-1.54357 -1.03245,-1.99449 -0.54128,-0.47791 -1.47232,-0.61606 -2.22135,-0.3295 -0.34063,0.13036 -0.74246,0.44562 -0.98243,0.77105 -0.44453,0.60259 -0.86931,1.64295 -1.4425,3.53303 -0.69192,2.28149 -1.21715,3.57837 -1.84337,4.55227 -1.01341,1.57608 -2.69487,2.63283 -4.71894,2.96557 -0.73367,0.12066 -1.27824,0.15526 -2.11586,0.13511 -0.5884,-0.0141 -0.85034,-0.0355 -1.22003,-0.0994 -2.0412,-0.35236 -3.80047,-1.33722 -4.84713,-2.71368 -0.73675,-0.96895 -1.20806,-2.20385 -1.43088,-3.74972 -0.0593,-0.41338 -0.10896,-2.33923 -0.0699,-2.74114 v 0 z"
   style="fill:#000000;stroke:#000000;stroke-width:0.0143124;stroke-linecap:round;stroke-linejoin:round;stroke-miterlimit:4;stroke-dasharray:none;stroke-opacity:1" /><path
   inkscape:connector-curvature="0"
   id="path4068"
   d="m 776.91641,575.15392 13.09729,-0.0768 0.12648,2.83856 -0.12648,2.78303 -11.44713,-0.0657 -9.48434,0.0657 -0.26808,4.64769 -0.23548,5.23425 -2.45828,-0.11374 h -2.11779 v -7.29367 l -0.15334,-8.09612 z"
   style="fill:#000000;stroke:#000000;stroke-width:0.0143124;stroke-linecap:round;stroke-linejoin:round;stroke-miterlimit:4;stroke-dasharray:none;stroke-opacity:1"
   sodipodi:nodetypes="ccccccccccccc" /><path
   style="fill:none;stroke:#000000;stroke-width:1.05826px;stroke-linecap:butt;stroke-linejoin:miter;stroke-opacity:1"
   d="m 703.83187,320.11311 3.13863,-2.94771 2.36108,-1.80053 4.36473,-2.62701 5.53188,-2.56284 4.26797,-1.26422 4.33703,-0.82564 1.5563,-0.20307 3.23464,-0.16699 h 64.71806 l 1.75984,0.1495 1.98162,0.23946 1.9876,0.23843 3.0568,0.54365 2.58993,0.60654 2.73602,0.75606 3.29677,0.94402 2.38401,0.90447 4.31112,1.71925 3.08786,1.53897 2.35814,1.19687 3.62271,2.16476 2.71015,1.63806 1.60803,1.20579 2.12336,1.45266 3.59662,2.60873 2.71305,2.54715 4.7694,4.70066 2.91102,3.2566 1.87847,2.63017 1.42346,2.18879 2.14081,3.73676 0.81423,1.65095 1.30049,2.96904 0.74161,2.60438 0.87882,3.27933 0.38065,2.68679 0.0535,2.38905 v 4.00564 2.85158 877.24079 l -0.18357,2.4982 -0.38651,3.4016 -1.45448,4.7807 -1.38826,3.7835 -4.03704,7.2727 -2.88207,4.0663 -2.76445,3.207 -1.65938,1.9793 -2.98941,2.8697 -3.4377,3.0297 -2.4374,1.9304 -4.5003,3.1261 -4.60759,2.861 -2.58403,1.2764 -3.94578,1.8499 -4.13256,1.6839 -4.65184,1.4576 -4.1725,1.1704 -4.12369,0.746 -3.67873,0.4428 -3.44779,0.2681 h -63.52619 l -2.54622,-0.2166 -4.10107,-0.6471 -2.39335,-0.5101 -2.91554,-0.9021 -4.15196,-1.5158 -4.16679,-1.8957 -3.4925,-1.9645 -2.79332,-2.0643 -3.4555,-2.8865 -3.4873,-3.839 -2.67408,-3.9255 -1.54472,-3.2413 -1.19775,-2.9085 -0.9121,-3.3604 -0.46521,-3.6114 -0.0267,-2.1481 V 343.2709 l 0.31427,-2.9408 0.71549,-3.8546 1.4754,-4.26719 1.71591,-3.6925 2.83738,-4.46847 2.20596,-2.58313 z"
   id="path249" /><path
   style="fill:none;stroke:#000000;stroke-width:1.05826px;stroke-linecap:butt;stroke-linejoin:miter;stroke-opacity:1"
   d="m 849.19052,334.1424 3.21908,2.17042 1.56165,1.27444 1.23888,1.19169 1.49978,1.5011 1.54781,1.74036 1.27379,1.55128 1.28452,1.61901 1.97455,2.78527 1.26936,1.99357 1.02933,1.69453 1.49197,2.59804 1.24542,2.32982 1.75353,3.39096 0.71176,1.22024 0.8655,1.85702 0.81166,1.75459 1.10761,2.11634 1.16978,2.26724 0.96315,1.70548 0.83841,1.46167 0.87172,1.50449 1.30072,2.03631 0.78331,1.16942 1.4799,2.11577 1.30051,1.58863 1.02843,1.12767 1.64296,1.69945 1.5901,1.4214 2.23236,1.72927 2.52606,1.72731 2.40887,1.20758 1.53621,0.68686 3.48827,1.23377 4.65159,1.06377 3.45679,0.46867 3.60735,0.30292 h 31.89624 l 1.05991,0.0524 1.09569,0.35799 1.3029,0.47511 1.09998,0.70152 1.13614,1.07817 1.03952,1.35833 0.7281,1.72686 0.14299,1.59558 -0.33149,1.44495 -0.83034,1.59464 -2.22908,3.45642 -2.71276,4.16255 -2.61531,3.53895 -1.5388,1.96626 -1.39143,1.70797 -1.58266,1.83078 -1.50188,1.74492 -2.40389,2.66585 -2.20864,2.31021 -1.21606,1.37503 -2.70348,2.77029 -1.46571,1.52878 -3.39717,3.40211 -1.77114,1.80761 -1.5054,1.31425 -2.75843,2.62945 -1.17155,1.09076 -5.42699,5.03225 -4.03267,3.77541 -1.95202,1.82888 -2.35773,2.24581 -6.78805,6.49267 -2.68057,2.59374 -2.2554,2.20313 -1.82325,1.85595 -1.27722,1.25543 -1.84374,1.98502 -1.93287,2.18602 -1.71201,1.91952 -1.40578,1.48175 -1.26473,1.52396 -1.84981,2.25155 -1.2894,1.60219 -1.47038,1.81212 -1.21961,1.73813 -2.08497,2.96419 -2.20798,3.32329 -1.36048,2.47225 -1.53377,2.68925 -1.0675,2.42765 -1.19902,2.91441 -0.85397,2.02032 H 860.53"
   id="path253" /><path
   style="font-variation-settings:normal;opacity:1;vector-effect:none;fill:#1a1a1a;fill-opacity:1;stroke:#000000;stroke-width:1.05826px;stroke-linecap:butt;stroke-linejoin:miter;stroke-miterlimit:4;stroke-dasharray:none;stroke-dashoffset:0;stroke-opacity:1;stop-color:#000000;stop-opacity:1"
   d="m 692.82059,806.6179 h -3.71197 l -1.3558,0.19637 -1.58994,0.53149 -1.75852,0.97253 -1.04357,0.98269 -0.92324,1.30425 -0.51591,1.29153 -0.0709,0.91287 -0.17705,2.36277 -0.28858,3.06439 -0.24321,3.23614 -0.22824,3.99212 -0.14057,3.06055 -0.16279,4.35367 -0.0957,5.46547 v 13.91656 l 0.17494,2.15966 0.0774,2.19846 0.22713,3.01372 0.25408,2.95358 0.18932,2.83672 0.36559,4.37372 0.1361,1.9343 0.13563,1.1854 0.3453,1.25056 0.84412,1.13463 1.14174,0.99638 1.73107,0.80167 1.43375,0.22511 h 5.11982 0.19294 z"
   id="path255" /><path
   style="font-variation-settings:normal;opacity:1;vector-effect:none;fill:#1a1a1a;fill-opacity:1;stroke:#000000;stroke-width:1.05826px;stroke-linecap:butt;stroke-linejoin:miter;stroke-miterlimit:4;stroke-dasharray:none;stroke-dashoffset:0;stroke-opacity:1;stop-color:#000000;stop-opacity:1"
   d="m 692.73656,880.78455 h -3.71197 l -1.35591,0.19637 -1.58986,0.53138 -1.75855,0.97253 -1.04359,0.98281 -0.9232,1.30415 -0.51597,1.29148 -0.0712,0.91279 -0.17704,2.36287 -0.28873,3.06438 -0.24313,3.23614 -0.22826,3.99209 -0.14062,3.06073 -0.16268,4.35355 -0.0958,5.46545 v 13.91671 l 0.17499,2.15954 0.0772,2.1985 0.22713,3.01361 0.25408,2.95368 0.18925,2.8367 0.36558,4.37363 0.13626,1.93437 0.13552,1.18538 0.34526,1.2506 0.84391,1.13458 1.1419,0.99636 1.73107,0.80168 1.43395,0.22509 h 5.11967 0.19285 z"
   id="path298" /><path
   style="fill:none;stroke:#000000;stroke-width:1.05826px;stroke-linecap:butt;stroke-linejoin:miter;stroke-opacity:1"
   d="m 693.23121,1000.9107 -0.79149,0.01 -1.28815,0.3129 -1.05761,0.9042 -0.37264,0.8403 v 55.3801 l 0.39303,0.9881 1.30635,1.0639 0.85802,0.2104 0.89313,-0.043 z"
   id="path300"
   sodipodi:nodetypes="ccccccccccc" /><path
   style="fill:none;stroke:#000000;stroke-width:1.05826px;stroke-linecap:butt;stroke-linejoin:miter;stroke-opacity:1"
   d="m 836.71629,322.567 2.02419,-0.36864 3.94228,0.7973 3.69544,0.79337 3.75921,0.85711 11.85318,3.05747 9.23054,2.61782 7.81966,2.30788 9.17306,2.72003 7.67632,2.12314 8.46816,2.22319 3.38576,0.89254 3.37611,0.78288 2.90247,0.65447 4.92372,1.011 3.86315,0.73214 4.6461,0.73185 6.35399,0.74896 2.53114,0.2582 2.81763,0.19404 1.69437,0.53854 1.91988,0.82572 1.29203,0.80626 0.91737,0.61783 1.22459,1.17214 1.4436,1.66287 1.16051,2.03621 0.44858,1.60302 0.21154,1.03774 v 22.4426 l -0.21379,1.30887 -0.55514,1.41238 -0.92898,1.65396 -0.93309,1.22065 -1.41728,1.52168 -1.64956,1.67939 -1.95658,1.81056 -1.70869,1.67103 -1.14986,1.42976 -0.57762,0.92491"
   id="path302"
   sodipodi:nodetypes="cccccccccccccccccccccccccccccccccccccccc" /><path
   style="fill:none;stroke:#000000;stroke-width:1.05826px;stroke-linecap:butt;stroke-linejoin:miter;stroke-opacity:1"
   d="m 692.97124,518.12505 -1.1315,0.39257 -1.37562,0.93654 -1.42685,1.02915 -1.4934,1.35093 -1.51153,1.59347 -1.57608,1.80043 -1.19592,1.49238 -0.95295,1.2028 -0.99981,1.39488 -1.11672,1.62988 -0.67426,1.24649 -0.89867,1.6923 -1.04419,1.96808 -1.02435,2.23053 -0.70125,1.9122 -0.64218,2.00992 -0.66601,2.80381 -0.16682,0.35984 -1.32291,-0.13792 -1.09114,-0.18501 -1.44638,-0.5408 -1.12168,-0.69075 -1.29281,-0.99784 -0.67639,-0.85221 -0.55249,-1.12312 -0.41458,-1.37673 v -45.44855 l -0.2278,-1.17951 -0.83761,-1.09771 -0.98391,-0.84866 -1.24127,-0.6609 -1.82265,-0.61456 -2.2391,-0.31263 -2.70896,-0.0433 -3.74239,0.51107 -3.12331,1.02869 -1.96805,0.9281 -1.65805,0.9971 -2.35779,1.9307 -1.51959,1.79418 -0.86745,1.80818 -0.60282,2.14884 -0.19646,1.82916 v 15.40421 l -0.83161,2.33429 -0.91272,3.04959 -0.74325,2.10757 -1.61937,5.41041 -0.12111,0.54556 -0.40581,1.62217 -0.49091,2.01238 -0.59142,2.59655 -0.57232,2.94409 -0.59588,3.41706 -0.58429,3.69094 -0.30665,2.56515 -0.19493,1.97811 -0.14,1.7685 -0.18891,2.53078 -0.10381,2.51798 -0.11292,2.96467 -0.0359,3.59806 0.15366,3.6276 0.17776,3.46386"
   id="path304" /><path
   style="fill:none;stroke:#000000;stroke-width:1.05826px;stroke-linecap:butt;stroke-linejoin:miter;stroke-opacity:1"
   d="m 692.97124,607.40625 -1.1315,-0.39258 -1.37562,-0.93648 -1.42685,-1.02913 -1.4934,-1.35094 -1.51153,-1.59346 -1.57608,-1.80047 -1.19592,-1.49229 -0.95295,-1.2027 -0.99981,-1.39501 -1.11672,-1.62991 -0.67426,-1.24649 -0.89867,-1.69223 -1.04419,-1.96812 -1.02435,-2.23053 -0.70125,-1.9121 -0.64218,-2.01002 -0.66601,-2.80385 -0.16682,-0.35982 -1.32291,0.13792 -1.09114,0.18499 -1.44638,0.5408 -1.12168,0.69083 -1.29281,0.99782 -0.67639,0.85219 -0.55249,1.12316 -0.41458,1.37674 v 45.44853 l -0.2278,1.17947 -0.83761,1.09775 -0.98391,0.84859 -1.24127,0.66087 -1.82265,0.61454 -2.2391,0.31262 -2.70896,0.0433 -3.74239,-0.51107 -3.12331,-1.02864 -1.96805,-0.92804 -1.65805,-0.99713 -2.35779,-1.93066 -1.51959,-1.79429 -0.86745,-1.80817 -0.60282,-2.1488 -0.19646,-1.82923 v -15.40415 l -0.83161,-2.33426 -0.91272,-3.0496 -0.74325,-2.10762 -1.61937,-5.41037 -0.12111,-0.54554 -0.40581,-1.62221 -0.49091,-2.01232 -0.59142,-2.5966 -0.57232,-2.944 -0.59588,-3.4171 -0.58429,-3.69103 -0.30665,-2.5651 -0.19493,-1.97805 -0.14,-1.76854 -0.18891,-2.53084 -0.10381,-2.518 -0.11292,-2.96469 -0.0359,-3.59804 0.15366,-3.62756 0.17776,-3.46383"
   id="path306" /><path
   style="fill:none;stroke:#000000;stroke-width:1.05826px;stroke-linecap:butt;stroke-linejoin:miter;stroke-opacity:1"
   d="m 775.70613,930.67798 h 6.88297 l 2.28539,0.16214 1.26002,0.19581 1.76364,0.44978 1.54431,0.54023 1.67581,0.7516 1.30308,0.77591 1.351,0.95896 1.20391,1.06668 1.23333,1.41851 0.66534,1.15018 0.59999,1.29551 0.56847,1.37162 0.12237,1.53383 0.0211,1.06297 v 58.84629 l -0.15295,1.1194 -0.23116,0.9934 -0.36667,0.9171 -0.33121,0.8904 -0.56239,0.9884 -0.78785,1.0723 -0.81425,0.833 -1.27928,1.2323 -1.06931,0.8505 -1.25762,0.74 -1.45911,0.7639 -1.76726,0.6201 -1.96306,0.4208 -1.81948,0.2525 -2.16025,0.036 h -13.67736 l -1.39352,-0.1437 -1.61442,-0.2653 -1.35389,-0.3546 -1.50132,-0.591 -1.4051,-0.6463 -1.01597,-0.5402 -1.16279,-0.8219 -0.79591,-0.7399 -0.75173,-0.6369 -1.41905,-1.789 -1.21178,-2.3965 -0.47332,-1.7353 -0.0352,-1.7747 v -59.0887 l 0.15843,-0.91122 0.2353,-0.66311 0.33411,-1.07413 0.49473,-1.07954 0.53001,-1.02036 0.41408,-0.61649 1.11568,-1.35413 1.07178,-1.00275 1.05522,-0.85273 0.98823,-0.6054 1.33036,-0.679 1.49934,-0.6658 0.97704,-0.3627 1.09687,-0.32259 1.01316,-0.18456 1.60459,-0.23808 0.52267,-0.0584 1.13369,-0.055 z"
   id="path310" /><path
   style="fill:none;stroke:#000000;stroke-width:1.05826px;stroke-linecap:butt;stroke-linejoin:miter;stroke-opacity:1"
   d="m 861.14815,404.40618 h 5.54273 l 1.13239,0.19824 1.14446,0.65845 0.86163,0.84428 0.69769,1.27874 0.46101,1.37497 0.67609,2.17694 0.594,2.14852 0.42836,1.97161 0.35185,1.95552 0.28318,2.01629 0.24757,2.18632 0.15883,2.36086 0.0515,2.0634 -0.0382,2.90075 -0.20898,2.93022 -0.2909,3.12602 -0.36475,2.7481 -0.52911,2.43593 -0.42979,2.06948 -0.69731,2.43114 -0.54606,1.70566 -0.63531,1.13608 -0.73469,0.75725 -0.88381,0.54758 -0.87352,0.31879 -0.92609,0.0912 h -5.7865 -0.2573 v -44.44266 z"
   id="path320" /><path
   style="fill:none;stroke:#000000;stroke-width:1.05826px;stroke-linecap:butt;stroke-linejoin:miter;stroke-opacity:1"
   d="m 693.24455,396.83286 h -3.76523 l -1.06643,0.25787 -0.99317,0.75195 -0.42521,1.09596 v 10.80471 l 0.44758,1.00076 0.53071,0.71418 0.71243,0.44262 0.56831,0.16002 h 3.76959 0.23707 z"
   id="path322" /><path
   style="fill:none;stroke:#000000;stroke-width:1.05826px;stroke-linecap:butt;stroke-linejoin:miter;stroke-opacity:1"
   d="m 750.46285,1054.8834 h 52.27585 l -26.13791,37.008 z"
   id="path324" /><path
   style="fill:none;stroke:#000000;stroke-width:1.05826px;stroke-linecap:butt;stroke-linejoin:miter;stroke-opacity:1"
   d="m 750.46285,1099.1507 h 52.27585 l -26.13791,37.0103 z"
   id="path326" /><path
   style="fill:none;stroke:#000000;stroke-width:1.05826px;stroke-linecap:butt;stroke-linejoin:miter;stroke-opacity:1"
   d="m 750.46285,1143.4479 h 52.27585 l -26.13791,37.0096 z"
   id="path328" /><path
   style="fill:none;stroke:#000000;stroke-width:1.05826px;stroke-linecap:butt;stroke-linejoin:miter;stroke-opacity:1"
   d="m 778.04057,1044.0915 h 30.2502 l 2.09399,0.2805 1.5027,0.3596 1.79856,0.6644 1.3058,0.7522 1.27791,0.8782 0.87723,0.8256 0.78783,0.7967 0.70744,1.1132 0.53744,0.9894 0.38647,1.0282 0.27854,1.1979 0.0768,0.832 v 125.4492 l -0.0584,0.8725 -0.18651,1.0509 -0.47284,1.198 -0.82076,1.4957 -0.9559,1.1512 -1.58749,1.3554 -1.31901,0.9191 -1.78785,0.8597 -2.142,0.6159 -1.95324,0.1955 H 744.4795 l -1.65966,-0.1172 -1.72223,-0.3799 -1.14887,-0.42 -1.17235,-0.5564 -0.89394,-0.4863 -1.21714,-0.8173 -1.32116,-1.2796 -0.76942,-0.9208 -0.48899,-0.7767 -0.44478,-0.767 -0.40804,-1.0378 -0.19186,-0.7967 -0.0957,-1.2218 v -125.4573 l 0.0842,-1.1012 0.22849,-0.9527 0.25377,-0.7999 0.3841,-0.7652 0.89228,-1.4732 0.96782,-1.1445 1.52705,-1.2252 1.57059,-0.9496 0.86033,-0.4027 1.86895,-0.5936 1.46935,-0.2503 1.66232,-0.1826 1.29666,0.01 z"
   id="path330" /><path
   style="fill:none;stroke:#000000;stroke-width:1.05826px;stroke-linecap:butt;stroke-linejoin:miter;stroke-opacity:1"
   d="m 725.55643,307.69195 v -3.15636 l 0.41602,-1.45869 0.84647,-1.07003 1.32998,-0.98129 1.90655,-0.4849 h 50.64802 l 1.77337,0.18907 1.35848,0.58954 0.96318,0.63517 0.69534,0.61634 0.8698,1.22216 0.30525,1.40242 v 2.49146 z"
   id="path332" /><path
   style="font-variation-settings:normal;opacity:1;vector-effect:none;fill:#1a1a1a;fill-opacity:1;stroke:#000000;stroke-width:1.05826px;stroke-linecap:butt;stroke-linejoin:miter;stroke-miterlimit:4;stroke-dasharray:none;stroke-dashoffset:0;stroke-opacity:1;stop-color:#000000;stop-opacity:1"
   d="m 692.82059,732.45136 h -3.71197 l -1.3558,0.19637 -1.58994,0.53142 -1.75852,0.97256 -1.04357,0.98276 -0.92324,1.30424 -0.51591,1.29132 -0.0709,0.91287 -0.17705,2.36292 -0.28858,3.06449 -0.24321,3.2361 -0.22824,3.99209 -0.14057,3.06067 -0.16279,4.3536 -0.0957,5.46541 v 13.91656 l 0.17494,2.15972 0.0774,2.19845 0.22713,3.0135 0.25408,2.95378 0.18932,2.83663 0.36559,4.3737 0.1361,1.93433 0.13563,1.18539 0.3453,1.25066 0.84412,1.1347 1.14174,0.9964 1.73107,0.80161 1.43375,0.22504 h 5.11982 0.19294 z"
   id="path334" /><path
   style="font-variation-settings:normal;opacity:1;vector-effect:none;fill:#00bbdb;fill-opacity:1;stroke:#000000;stroke-width:1.05826px;stroke-linecap:butt;stroke-linejoin:miter;stroke-miterlimit:4;stroke-dasharray:none;stroke-dashoffset:0;stroke-opacity:1;stop-color:#000000;stop-opacity:1"
   d="m 715.68976,1292.562 c -9.52446,-4.4391 -16.34189,-11.422 -19.50698,-18.9208 -0.29193,-0.6917 -2.35412,-5.5984 -2.60261,-16.4551 -1.07235,-46.8497 0.0774,-191.6169 0.10359,-454.7666 0.0435,-447.14759 -1.30418,-463.75497 2.39022,-471.03613 4.64148,-9.14772 16.598,-19.11459 27.10554,-21.93295 4.87544,-1.30768 23.0785,-0.88742 46.19402,-0.85911 10.23202,0.0125 18.72663,-0.38907 24.97405,-0.24437 10.91884,0.25294 16.37057,1.40477 22.2572,3.83254 14.7923,6.1007 30.65906,16.41982 36.19234,28.23912 1.36656,2.91926 5.04685,7.46799 6.87279,11.04439 l 1.58648,449.69738 -1.71029,449.94123 -4.57601,10.229 c -5.76387,12.8838 -23.0888,27.62 -37.73881,32.5268 -10.0667,3.3719 -16.98581,3.8603 -50.386,3.8243 -15.66341,-0.017 -22.70977,0.078 -28.8546,0.1196 -1.679,0.012 -2.83595,0.1219 -4.07376,0.1486 -2.11155,0.045 -3.88843,-0.1698 -5.74577,-0.6074 -1.37959,-0.3249 -2.11492,-0.4449 -3.44851,-0.9415 -0.74869,-0.2788 -1.87592,-0.6041 -2.8513,-0.9577 z m 108.56019,-95.8474 c 0.38485,-0.068 1.30775,-0.4225 1.63466,-0.6578 1.76867,-1.2723 3.50791,-2.3319 4.22181,-3.2892 0.84573,-1.1339 1.27987,-186.9929 1.29752,-414.44685 l -0.645,-411.55146 -5.42361,-3.5059 c -3.84745,-2.48689 -9.54651,-1.47379 -50.25739,-1.47379 -45.9326,0 -47.17583,-0.69458 -51.12235,2.83838 -1.75117,1.56776 -1.89222,2.84554 -1.97108,34.2508 -0.0501,20.16813 -0.28499,52.76087 -0.21249,105.83439 0.0464,34.48655 -0.44762,77.46017 -0.41266,131.47944 0.0266,40.99026 -0.3838,87.98688 -0.3838,142.48187 0,287.54012 0.31713,410.81322 1.87564,413.42022 1.22646,2.0518 3.85416,3.3319 6.36922,4.2391 3.50176,1.2632 25.47804,1.4764 48.32261,1.4246 23.21461,-0.053 42.66064,-0.3244 43.57886,-0.4876 z"
   id="path460"
   sodipodi:nodetypes="sssssssssscccssssssscssssscssssssssssss" /><path
   style="font-variation-settings:normal;opacity:1;vector-effect:none;fill:#1a1a1a;fill-opacity:1;stroke:#000000;stroke-width:1.05826px;stroke-linecap:butt;stroke-linejoin:miter;stroke-miterlimit:4;stroke-dasharray:none;stroke-dashoffset:0;stroke-opacity:1;stop-color:#000000;stop-opacity:1"
   d="m 651.61137,634.36902 c -2.25444,-0.74313 -5.31297,-2.43774 -6.79629,-3.7658 -2.51111,-2.24792 -2.7438,-3.2062 -3.36972,-13.8765 -0.42094,-7.17614 -1.50516,-14.08939 -2.89928,-18.48885 -5.02848,-15.86669 -6.69906,-36.98232 -4.20129,-53.10339 0.6244,-4.03096 2.50829,-12.10073 4.18625,-17.93284 2.2855,-7.94366 3.05179,-12.76221 3.05469,-19.20734 0.003,-6.76395 0.4242,-9.2202 1.96962,-11.48912 3.74535,-5.49839 15.61408,-8.16685 20.11307,-4.52177 1.91435,1.55102 1.98476,4.0542 1.98476,70.61697 0,53.8247 -0.28868,69.36237 -1.31177,70.61489 -1.81599,2.22337 -7.83085,2.76851 -12.73004,1.15375 z"
   id="path462" /><path
   style="font-variation-settings:normal;opacity:1;vector-effect:none;fill:#1a1a1a;fill-opacity:1;stroke:#000000;stroke-width:1.05826px;stroke-linecap:butt;stroke-linejoin:miter;stroke-miterlimit:4;stroke-dasharray:none;stroke-dashoffset:0;stroke-opacity:1;stop-color:#000000;stop-opacity:1"
   d="m 667.45909,562.79927 v -19.58662 l 0.83263,0.53645 c 1.64165,1.05771 3.5947,1.86312 4.51805,1.86312 h 0.93978 v 17.02042 17.02043 l -1.59125,0.3587 c -0.87524,0.1973 -2.29055,0.8122 -3.14519,1.36643 l -1.55402,1.00774 z"
   id="path466" /><path
   style="font-variation-settings:normal;opacity:1;vector-effect:none;fill:#1a1a1a;fill-opacity:1;stroke:#000000;stroke-width:1.05826px;stroke-linecap:butt;stroke-linejoin:miter;stroke-miterlimit:4;stroke-dasharray:none;stroke-dashoffset:0;stroke-opacity:1;stop-color:#000000;stop-opacity:1"
   d="m 690.51408,605.15212 c -5.16274,-3.77301 -10.72791,-11.63762 -13.73517,-19.40993 l -1.36436,-3.52604 -0.10694,-18.64938 -0.10694,-18.64916 0.92506,-3.1116 c 2.24416,-7.54814 8.48147,-16.92882 14.12727,-21.24691 1.10873,-0.84788 2.0956,-1.4702 2.19316,-1.38288 0.0974,0.0873 0.13516,19.78363 0.0829,43.76946 l -0.0937,43.61068 z"
   id="path468" /><path
   style="font-variation-settings:normal;opacity:1;vector-effect:none;fill:#1a1a1a;fill-opacity:1;stroke:#000000;stroke-width:1.05826px;stroke-linecap:butt;stroke-linejoin:miter;stroke-miterlimit:4;stroke-dasharray:none;stroke-dashoffset:0;stroke-opacity:1;stop-color:#000000;stop-opacity:1"
   d="m 691.99169,1059.981 c -0.43174,-0.075 -1.45218,-1.1157 -1.54368,-1.5742 -0.0426,-0.2167 -0.0616,-12.8425 -0.0409,-28.0575 l 0.0373,-27.6625 0.51876,-0.4757 c 0.43229,-0.3963 1.53126,-0.5812 1.97049,-0.5841 0.054,-4e-4 -0.3306,13.0521 -0.3306,29.1559 0,23.3544 -0.0326,29.2763 -0.16366,29.2636 -0.0896,-0.01 -0.29101,-0.038 -0.44709,-0.065 z"
   id="path470"
   sodipodi:nodetypes="ssscssscss" /><path
   style="font-variation-settings:normal;opacity:1;vector-effect:none;fill:#00bbdb;fill-opacity:1;stroke:#000000;stroke-width:1.05826px;stroke-linecap:butt;stroke-linejoin:miter;stroke-miterlimit:4;stroke-dasharray:none;stroke-dashoffset:0;stroke-opacity:1;stop-color:#000000;stop-opacity:1"
   d="m 766.10527,1013.2908 c -4.00274,-0.8724 -10.03373,-1.3788 -10.42077,-4.7081 l -0.75949,-2.0047 -0.28143,-4.2445 0.46839,-28.18467 c 0.33211,-19.98052 0.0456,-31.19171 0.56452,-32.91537 1.00365,-3.3367 3.33242,-6.44418 7.21565,-8.30383 2.71484,-1.30008 4.9097,-2.04905 13.79586,-2.04905 8.81668,0 10.42195,0.50274 13.0343,1.76135 3.55165,1.71116 5.5471,4.25766 6.61601,6.78357 1.27997,3.02419 1.07131,63.4943 -0.22854,66.2799 -1.35749,2.9075 -5.16914,6.4481 -9.1108,7.3368 -2.00637,0.4521 -7.24997,0.5575 -12.04484,0.4248 -3.64535,-0.101 -7.3419,0.1521 -8.84886,-0.1762 z m 0.90239,-24.14749 c 1.30266,-0.59781 3.76122,-1.93984 5.46339,-2.98213 3.0164,-1.84715 2.62819,-3.71582 3.09929,-2.38675 0.7105,2.00394 5.29442,5.39952 8.49216,4.86246 4.54602,-0.76352 5.66474,-2.82143 5.66474,-10.42118 v -6.53583 h -12.95073 l -12.89878,-0.0293 -4.8e-4,2.21808 0.0377,2.30799 5.19094,-0.0188 c 3.06309,-0.0111 4.7543,-0.44405 5.30301,-0.17154 0.43878,0.21793 0.0197,1.05357 -0.0796,1.68687 -0.15865,1.00029 -0.60121,2.34866 -3.95366,4.29487 -4.74944,2.75733 -6.35333,3.26396 -6.35333,5.70343 0,2.93482 -0.19182,2.93002 2.98556,1.47187 z m 9.77009,-20.27913 c 1.11143,-0.85678 2.63782,-3.3219 3.58936,-5.79699 1.2789,-3.32676 1.7664,-4.85942 2.88442,-4.85942 1.13769,0 2.04217,0.89994 2.22266,2.84994 0.19659,2.1254 -0.13183,2.73645 -1.77963,3.40853 -1.17374,0.47876 -2.00958,1.1869 -1.76637,1.75443 0.21925,0.51147 0.39864,1.50184 0.39864,2.20079 0,2.45762 5.36671,0.83845 7.08581,-2.13779 2.17014,-3.75681 0.74844,-10.20306 -2.60454,-11.80952 -2.33098,-1.11676 -6.34823,-0.79029 -8.44519,0.68635 -1.19698,0.84291 -2.15605,2.93963 -2.85534,5.09361 -1.45971,4.49496 -2.95591,5.88707 -4.67465,5.29662 -3.31565,-1.13906 -2.88308,-6.88813 0.63214,-7.67799 1.79277,-0.40281 2.55983,-2.23751 1.32227,-3.98591 -0.99354,-1.40385 -4.942,-0.29462 -7.0915,1.99223 -1.52937,1.62721 -1.86526,2.67437 -1.84386,5.74828 0.0131,2.06727 0.46738,4.47116 1.00653,5.34199 2.18122,3.52322 8.50276,4.52822 11.91925,1.89485 z"
   id="path472"
   sodipodi:nodetypes="ssccssssssssssssssscccccsssssssssssssssssssssssss" /><path
   style="font-variation-settings:normal;opacity:1;vector-effect:none;fill:#00c8e8;fill-opacity:0.992157;stroke:#000000;stroke-width:1.05826px;stroke-linecap:butt;stroke-linejoin:miter;stroke-miterlimit:4;stroke-dasharray:none;stroke-dashoffset:0;stroke-opacity:1;stop-color:#000000;stop-opacity:1"
   d="m 779.97197,983.18338 c -0.71177,-0.67826 -0.80444,-1.13691 -0.80444,-3.97513 v -3.20828 h 2.9601 2.96018 v 3.10213 c 0,2.63687 -0.11495,3.23321 -0.767,3.97514 -1.02432,1.16584 -3.18167,1.21849 -4.34884,0.10614 z"
   id="path474" /><path
   style="font-variation-settings:normal;opacity:1;vector-effect:none;fill:#00bbdb;fill-opacity:1;stroke:#000000;stroke-width:1.05826px;stroke-linecap:butt;stroke-linejoin:miter;stroke-miterlimit:4;stroke-dasharray:none;stroke-dashoffset:0;stroke-opacity:1;stop-color:#000000;stop-opacity:1"
   d="m 759.91576,611.58282 c -6.13474,-3.70114 -6.11657,-5.62821 -6.1291,-39.94778 -0.01,-29.83588 0.26729,-32.41904 2.27384,-35.36539 3.06595,-4.50189 10.91083,-6.3482 20.49104,-6.3482 9.58022,0 16.72863,1.49436 19.79459,5.99623 2.00402,2.94267 1.5843,6.84153 1.58807,36.20906 0.003,28.17344 0.0938,31.97985 -1.64792,34.88721 -3.10182,5.17792 -7.70554,7.15234 -19.9682,7.15234 -9.28962,0 -13.29606,-0.70953 -16.40232,-2.58347 z m 9.16647,-25.73096 v -5.1532 h 10.46564 10.46583 v -2.81079 -2.8108 h -13.08218 -13.08226 v 7.96392 c 0,7.8703 -0.19605,7.83501 2.38958,7.83501 2.47376,0 2.84339,-0.1521 2.84339,-5.02414 z m 8.05356,-16.60389 c 0.21084,-0.0366 0.50461,-0.54457 0.74544,-0.86099 0.73869,-0.97006 1.51738,-2.74038 2.23449,-4.6731 1.7579,-4.73806 4.06339,-5.98564 4.67585,-2.25903 0.19736,1.20147 -0.53882,2.61904 -1.5072,2.95172 -2.2147,0.76084 -2.23718,5.98579 -0.0249,5.98579 3.1474,0 6.75523,-4.36955 6.75523,-8.18139 0,-2.26721 -0.74688,-3.89411 -1.65449,-5.16035 -1.17681,-1.64231 -2.82688,-2.58628 -5.56873,-2.58628 -4.56042,0 -6.35642,1.85415 -8.20801,7.01735 -1.52231,4.24526 -3.09715,4.90503 -5.18494,3.03577 -1.98105,-1.77326 -2.47615,-4.65243 0.30721,-5.44332 2.17341,-0.61757 4.30312,-4.09008 2.45394,-5.11319 -0.61036,-0.33768 -2.47372,-0.10819 -4.14093,0.50995 -3.13874,1.164 -4.71653,4.73222 -4.72409,8.18082 -0.005,2.3808 0.63553,4.70482 2.44645,6.14134 3.00715,2.38554 7.27423,1.17084 11.09771,0.50666 z"
   id="path476"
   sodipodi:nodetypes="scssscsssscccccccsssssssssssssssssssss" /><path
   style="font-variation-settings:normal;opacity:1;vector-effect:none;fill:#1a1a1a;fill-opacity:1;stroke:#000000;stroke-width:1.05826px;stroke-linecap:butt;stroke-linejoin:miter;stroke-miterlimit:4;stroke-dasharray:none;stroke-dashoffset:0;stroke-opacity:1;stop-color:#000000;stop-opacity:1"
   d="m 724.74875,1194.3139 c -2.94744,-2.6388 -2.96017,-4.417 -2.96017,-414.68236 l 1.0193,-380.54449 0.0854,-32.0935 2.43341,-2.77509 c 2.6327,-3.0023 4.68233,-2.02227 50.59972,-2.02227 44.72052,0 47.87519,0.1562 51.15391,2.53297 l 3.3115,2.71192 0.18265,412.13894 -0.75631,412.49538 -2.73784,2.3556 c -3.042,2.6172 -6.43839,2.533 -51.43303,2.533 -45.96544,0 -48.06071,-0.1091 -50.899,-2.6501 z m 91.65183,-7.4058 3.52095,-4.0367 0.0927,-66.2501 -0.4443,-66.5392 -2.53241,-3.3325 -4.34759,-2.7417 -36.13809,-0.7473 -36.72642,1.1063 -4.04318,2.1461 -3.63293,3.2525 v 66.7203 c 0,51.3861 0.42512,67.1983 1.84996,68.7972 4.05851,4.554 7.65069,4.9749 42.80905,5.0153 l 34.45793,-0.8737 z m -27.56325,-173.5712 c 8.89309,-2.7754 9.12451,-3.0866 9.12451,-41.1611 0,-32.9557 -0.11421,-35.06739 -2.99862,-37.64952 -1.66056,-1.48664 -4.65866,-2.90563 -6.71437,-3.60529 -5.55169,-1.88967 -19.05487,-1.44773 -24.80502,0.70316 -9.05004,3.38525 -9.98864,5.00214 -9.98864,40.79195 0,20.04654 0.002,33.575 0.98978,35.2268 3.01892,5.0501 10.42573,6.7683 20.89397,6.7736 5.37325,0 10.98857,-0.2968 13.49839,-1.0796 z m -1.77377,-140.06065 c 5.75521,-3.46829 7.94575,-8.3224 7.68096,-13.07337 -0.18894,-3.39391 -1.53576,-6.53256 -4.94305,-9.4549 -7.80886,-6.6976 -21.35982,-5.59038 -27.93986,1.89846 -3.60106,4.09851 -3.60683,12.28955 -0.24717,16.58355 5.33891,6.82392 17.35981,8.92113 25.44912,4.04626 z m -1.534,-61.94222 c 2.27393,-1.08946 2.86288,-2.80676 2.86288,-8.34766 0,-3.83688 -0.79927,-7.69164 -1.77609,-8.56609 -0.97686,-0.87453 -5.50589,-1.59006 -10.06453,-1.59006 -4.55888,0 -9.08777,0.71553 -10.06473,1.59006 -2.88682,2.58434 -2.27532,15.24323 0.81414,16.85422 3.39059,1.768 14.58624,1.80457 18.22833,0.0595 z m 0.52177,-39.18356 c 3.35977,-1.1543 3.35977,-15.78749 0,-16.94172 -4.10524,-1.41036 -17.72197,-0.86343 -19.56424,0.78576 -0.97676,0.87441 -1.77602,4.3328 -1.77602,7.68507 0,3.35236 0.79926,6.81073 1.77602,7.6851 1.84227,1.64923 15.459,2.19614 19.56424,0.78579 z m 0,-39.75078 c 3.35977,-1.15428 3.35977,-15.7876 0,-16.9419 -4.10524,-1.41025 -17.72197,-0.8634 -19.56424,0.7858 -0.97676,0.87454 -1.77602,4.33282 -1.77602,7.68519 0,3.35232 0.79926,6.81059 1.77602,7.68512 1.84227,1.64919 15.459,2.19612 19.56424,0.78579 z m 0.56502,-39.21155 c 0.97682,-0.87452 1.77609,-4.72921 1.77609,-8.56606 0,-8.09209 -1.98236,-9.7193 -11.84062,-9.7193 -9.85831,0 -11.84075,1.62721 -11.84075,9.7193 0,3.83685 0.79926,7.69154 1.77602,8.56606 0.97696,0.87456 5.50585,1.59008 10.06473,1.59008 4.55864,0 9.08767,-0.71552 10.06453,-1.59008 z m 7.73219,-82.57983 3.43871,-4.49287 0.96579,-33.57481 c 0.63352,-22.02175 -0.57191,-35.24647 -1.59922,-36.96512 -2.41234,-4.03562 -10.47919,-6.42638 -21.6645,-6.42086 -11.43495,0.005 -18.76357,3.01472 -21.17569,8.69462 -0.79375,1.86902 -1.44317,17.83509 -1.44317,35.48028 0,27.49634 0.34445,32.52234 2.40998,35.16241 4.01921,5.13705 10.41042,6.89486 23.15716,6.36883 10.26639,-0.42364 11.981,-0.88192 15.91094,-4.25248 z"
   id="path480"
   sodipodi:nodetypes="csccssscccssscsccccccccsssccssssssscssssssssssssssssssssssssssssssssssscsscsssssc" /><path
   style="font-variation-settings:normal;opacity:1;vector-effect:none;fill:#000000;fill-opacity:1;stroke:#000000;stroke-width:1.05826px;stroke-linecap:butt;stroke-linejoin:miter;stroke-miterlimit:4;stroke-dasharray:none;stroke-dashoffset:0;stroke-opacity:1;stop-color:#000000;stop-opacity:1"
   d="m 736.78723,1187.7911 c -1.298,-0.1861 -3.1351,-1.1441 -4.12953,-2.2364 -1.67415,-1.8386 -1.46851,-8.5523 -1.49003,-68.6762 -0.0139,-42.7897 0.82324,-65.8338 1.77406,-66.8789 3.73504,-4.1048 5.66766,-6.6423 41.83284,-6.6423 22.2293,0 36.39186,1.49 38.02088,2.1545 1.37098,0.5592 4.52065,3.0392 5.47913,4.4919 1.58052,2.3954 0.63967,8.6664 0.63967,67.0348 v 64.3635 l -2.16858,3.9919 -5.27861,2.9043 -34.61421,1.6993 c -23.32229,1.1448 -34.42327,-1.3975 -36.00258,-1.6239 z m 54.06514,-26.8748 11.00619,-16.6712 -11.75699,-1.2376 c -7.76995,-0.8178 -20.2924,-0.1436 -27.71153,0 l -12.84888,0.2611 13.53509,19.2779 c 7.5263,10.7199 13.80137,15.8265 14.21186,15.4314 0.41057,-0.3952 6.63649,-6.5678 13.56426,-17.0616 z m -0.9807,-43.3601 c 7.33923,-10.4748 11.84024,-17.3166 11.84024,-17.6432 0,-0.3266 -10.26089,0 -25.51486,0 -15.25382,0 -24.29237,-0.5851 -24.29237,-0.3178 0,0.5187 22.28163,32.7093 24.02871,34.6825 0.57034,0.6441 -2.55175,3.5489 0.12328,1.4227 1.55256,-1.2343 6.47589,-7.6653 13.815,-18.1398 z m 1.26819,-46.0696 c 6.97336,-9.9103 10.38155,-15.8053 10.38155,-16.0726 0,-0.2672 -10.37007,-0.7015 -25.6239,-0.7015 -15.25396,0 -27.10407,-0.7441 -27.10407,-0.5286 0,0.3071 14.04655,18.6276 26.31692,35.8696 1.32108,1.8561 -2.32537,-0.013 -1.19777,-1.0844 0.74057,-0.7037 10.25369,-7.5718 17.22727,-17.4825 z"
   id="path486"
   sodipodi:nodetypes="sssssssscccsssscsscssssssssssssssssss" /><path
   style="font-variation-settings:normal;opacity:1;vector-effect:none;fill:#1a1a1a;fill-opacity:1;stroke:#000000;stroke-width:1.05826px;stroke-linecap:butt;stroke-linejoin:miter;stroke-miterlimit:4;stroke-dasharray:none;stroke-dashoffset:0;stroke-opacity:1;stop-color:#000000;stop-opacity:1"
   d="m 773.71797,1086.2976 c -1.52967,-2.1559 -7.03293,-9.9311 -12.22957,-17.2789 l -9.44853,-13.3589 24.31338,-0.1217 c 13.37241,-0.067 24.40465,-0.04 24.51638,0.06 0.18859,0.1688 -22.99363,33.2901 -23.94121,34.2053 -0.23603,0.2279 -1.68081,-1.3496 -3.21045,-3.5056 z"
   id="path488" /><path
   style="font-variation-settings:normal;opacity:1;vector-effect:none;fill:#1a1a1a;fill-opacity:1;stroke:#000000;stroke-width:1.05826px;stroke-linecap:butt;stroke-linejoin:miter;stroke-miterlimit:4;stroke-dasharray:none;stroke-dashoffset:0;stroke-opacity:1;stop-color:#000000;stop-opacity:1"
   d="m 764.43925,1117.4579 c -6.67075,-9.4451 -12.03652,-17.2553 -11.92408,-17.3559 0.11234,-0.1006 11.06121,-0.1281 24.33082,-0.061 l 24.12653,0.1219 -12.06181,17.0999 c -6.63398,9.4048 -12.12501,17.1594 -12.20235,17.2332 -0.0769,0.074 -5.5984,-7.593 -12.26911,-17.038 z"
   id="path490" /><path
   style="font-variation-settings:normal;opacity:1;vector-effect:none;fill:#1a1a1a;fill-opacity:1;stroke:#000000;stroke-width:1.05826px;stroke-linecap:butt;stroke-linejoin:miter;stroke-miterlimit:4;stroke-dasharray:none;stroke-dashoffset:0;stroke-opacity:1;stop-color:#000000;stop-opacity:1"
   d="m 773.8552,1175.0712 c -1.44591,-2.0351 -6.94432,-9.8141 -12.21866,-17.286 l -9.5898,-13.5856 24.30991,-0.1218 c 13.37048,-0.067 24.36834,0.1196 24.51754,0.064 1.86451,-0.694 -22.99924,33.3138 -23.94487,34.2089 -0.25378,0.2401 -1.57608,-1.1705 -3.07412,-3.2795 z"
   id="path492"
   sodipodi:nodetypes="sscsssss" /><path
   style="font-variation-settings:normal;opacity:1;vector-effect:none;fill:#00bbdb;fill-opacity:1;stroke:#000000;stroke-width:1.05826px;stroke-linecap:butt;stroke-linejoin:miter;stroke-miterlimit:4;stroke-dasharray:none;stroke-dashoffset:0;stroke-opacity:1;stop-color:#000000;stop-opacity:1"
   d="m 861.18577,475.38182 0.65587,-25.61369 h 2.89957 c 1.59484,0 3.43885,-0.18519 4.09762,-0.41153 6.9809,-2.39805 7.46518,-39.80849 0.5782,-44.65829 -1.10116,-0.77538 -2.91802,-1.09077 -4.57518,-1.11194 l -3.38869,-0.0433 0.19087,-24.4982 c 0.19624,-25.18039 -0.51185,-26.64139 -3.78016,-33.55866 -0.67214,-1.42239 -1.07485,-2.71787 -0.89507,-2.87885 0.8208,-0.7348 7.5877,9.79388 12.65986,19.69765 9.00336,17.57949 14.46909,24.16448 23.43221,28.23056 6.68974,3.03474 11.34221,3.56106 31.57336,3.57162 l 18.76009,0.01 2.51621,2.25259 c 1.44155,1.29049 2.5138,2.91753 2.51055,3.8095 -0.005,1.78294 -5.15878,10.12351 -9.9267,16.06891 -5.75568,7.17705 -14.80205,16.43717 -31.08778,31.82217 -28.42171,26.84966 -36.78852,36.30289 -43.42918,49.06775 l -2.77881,7.83363 z"
   id="path494"
   sodipodi:nodetypes="ccsssscsssssscscssscc" /><path
   style="font-variation-settings:normal;opacity:1;vector-effect:none;fill:#000000;fill-opacity:1;stroke:#000000;stroke-width:1.05826px;stroke-linecap:butt;stroke-linejoin:miter;stroke-miterlimit:4;stroke-dasharray:none;stroke-dashoffset:0;stroke-opacity:1;stop-color:#000000;stop-opacity:1"
   d="m 688.91918,411.22604 c -1.10428,-0.57578 -1.24317,-1.33974 -1.23932,-6.82094 0.002,-2.87283 0.0754,-5.46474 0.16407,-5.75976 0.23213,-0.77574 1.40557,-1.22037 3.22077,-1.22037 h 1.58286 v 7.02706 7.02701 l -1.63532,-0.007 c -0.8994,-0.004 -1.84136,-0.11454 -2.09306,-0.24588 z"
   id="path496" /><path
   style="font-variation-settings:normal;opacity:1;vector-effect:none;fill:#000000;fill-opacity:1;stroke:#000000;stroke-width:1.05826px;stroke-linecap:butt;stroke-linejoin:miter;stroke-miterlimit:4;stroke-dasharray:none;stroke-dashoffset:0;stroke-opacity:1;stop-color:#000000;stop-opacity:1"
   d="m 861.14677,426.56254 v -21.69138 l 3.07429,0.0832 c 3.50256,0.0948 4.36088,0.42928 5.29116,2.06145 0.68744,1.20654 1.98,5.63878 2.61025,8.95079 1.42835,7.50709 1.18674,16.77936 -0.63904,24.50956 -1.71103,7.24438 -2.21248,7.77751 -7.31482,7.77751 h -3.02184 z"
   id="path498" /><path
   style="font-variation-settings:normal;opacity:1;vector-effect:none;fill:#000000;fill-opacity:1;stroke:#000000;stroke-width:1.05826px;stroke-linecap:butt;stroke-linejoin:miter;stroke-miterlimit:4;stroke-dasharray:none;stroke-dashoffset:0;stroke-opacity:1;stop-color:#000000;stop-opacity:1"
   d="m 726.13947,306.01513 c 0.003,-2.26435 1.27835,-4.16747 3.09436,-4.61904 1.38015,-0.34315 51.62213,-0.32638 53.02704,0.0177 0.67204,0.16459 1.47657,0.65306 2.248,1.3649 1.19305,1.10076 1.53539,1.89682 1.54297,3.58778 l 0.003,0.64416 h -29.95831 -29.95851 l 10e-4,-0.9955 z"
   id="path500" /><path
   style="font-variation-settings:normal;opacity:1;vector-effect:none;fill:#000000;fill-opacity:1;stroke:#000000;stroke-width:1.05826px;stroke-linecap:butt;stroke-linejoin:miter;stroke-miterlimit:4;stroke-dasharray:none;stroke-dashoffset:0;stroke-opacity:1;stop-color:#000000;stop-opacity:1"
   d="m 905.34601,392.38179 c -8.25781,-1.15242 -13.72831,-3.51281 -19.24046,-8.3019 -4.69201,-4.07668 -11.17185,-11.23101 -15.85045,-20.84306 -7.6248,-15.66467 -13.80704,-19.25071 -18.09277,-24.99273 -0.65249,-0.87427 -3.47158,-5.66565 -5.10454,-7.29927 -3.92415,-3.92572 -6.15143,-5.94938 -7.83028,-7.11461 -0.75938,-0.52686 -2.41695,-0.77775 -2.35885,-0.82971 0.18823,-0.16862 11.96174,1.96064 17.73694,3.44138 7.32414,1.87788 11.01535,2.91521 23.8097,6.69111 27.12,8.00385 41.58688,11.33912 54.81466,12.63716 2.15849,0.21181 4.57217,0.48462 5.36356,0.6062 4.50149,0.69157 8.96309,4.57784 9.93341,8.65231 0.21814,0.91612 0.28269,4.67132 0.22341,13.00001 l -0.083,11.7116 -0.70633,1.34923 c -0.90073,1.72073 -2.32439,3.3664 -5.82355,6.7319 -1.54042,1.48153 -3.16422,3.1943 -3.60865,3.80621 l -0.80787,1.11257 -15.06591,-0.0227 c -11.1694,-0.0168 -15.64587,-0.10364 -17.30858,-0.33572 z"
   id="path502"
   sodipodi:nodetypes="ssssssssssssscssscsss" /><path
   style="fill:#333333;fill-opacity:1;stroke:#000000;stroke-width:0.280408;stroke-opacity:1"
   d="m 772.81589,812.07681 c -3.3765,-0.3033 -5.55958,-1.13976 -6.25968,-2.21017 -1.46884,-2.2455 -1.82592,-9.94564 -0.73736,-13.08666 0.69127,-1.99381 1.25846,-2.59814 4.43052,-3.13433 3.44427,-0.58213 11.62392,-0.38736 14.20715,0.34496 1.69006,0.47914 1.89681,0.57761 2.39893,1.78513 0.83839,2.0163 1.37361,7.31524 0.983,10.2956 -0.40465,3.08783 -0.96597,4.19724 -2.63856,4.9202 -2.33835,1.01076 -7.8656,1.49121 -12.384,1.08527 z"
   id="path926"
   sodipodi:nodetypes="sssssssss" /><path
   style="fill:#333333;fill-opacity:1;stroke:#000000;stroke-width:0.280408;stroke-opacity:1"
   d="m 772.85477,772.44035 c -1.33926,-0.1349 -3.43047,-0.46631 -4.2947,-0.7223 -1.50298,-0.44524 -2.0711,-0.79468 -2.62747,-2.18859 -0.84986,-2.12989 -0.72963,-9.67037 0.1203,-11.80014 0.71982,-1.80363 1.55958,-2.2264 5.29269,-2.66433 3.18057,-0.37311 12.8476,-0.10592 14.18593,0.35154 1.6962,0.57985 2.47265,3.48207 2.46553,8.4887 -0.004,3.13265 -0.31783,5.81169 -1.09873,6.87572 -0.23865,0.32536 -1.22462,1.13928 -2.05259,1.33154 -1.82342,0.42333 -8.82046,0.64716 -11.99096,0.32786 z"
   id="path928"
   sodipodi:nodetypes="ssssssssss" /><path
   style="fill:#333333;fill-opacity:1;stroke:#000000;stroke-width:0.280408;stroke-opacity:1"
   d="m 772.85171,732.51637 c -1.40838,-0.13165 -3.52006,-0.41083 -4.39642,-0.67037 -1.5287,-0.45271 -1.92775,-0.63254 -2.48569,-2.03059 -0.85011,-2.12973 -0.87981,-9.66409 -0.0298,-11.79395 0.71973,-1.80367 1.78087,-2.2684 5.51394,-2.70633 3.18044,-0.37307 12.64103,-0.0856 13.97924,0.3719 1.69634,0.57987 2.54474,3.48181 2.5375,8.48854 -0.004,3.13264 -0.65397,6.09423 -1.4348,7.15836 -0.24089,0.32839 -0.9494,0.6853 -1.7848,0.8753 -1.85078,0.42086 -8.61909,0.61365 -11.89912,0.30714 z"
   id="path930"
   sodipodi:nodetypes="sssssssssss" /><path
   style="fill:#333333;fill-opacity:1;stroke:#000000;stroke-width:0.280408;stroke-opacity:1"
   d="m 771.96418,693.91897 c -1.09197,-0.13612 -2.8593,-0.0903 -3.72114,-0.34698 -1.5398,-0.45853 -1.71797,-0.83603 -2.26621,-2.39839 -0.39072,-1.11332 -0.64766,-2.85779 -0.7565,-5.54839 -0.24263,-6.00127 0.58264,-7.93038 3.43976,-9.20639 1.43751,-0.64198 2.05965,-1.06262 7.95516,-1.06262 6.02324,0 6.21431,0.20323 7.84589,0.91882 2.0715,0.90843 2.71927,1.87456 3.17145,4.71723 0.59599,3.74742 -0.19572,11.16393 -1.41232,12.14697 -1.26464,1.02201 -9.91288,1.32112 -14.25609,0.77975 z"
   id="path932"
   sodipodi:nodetypes="ssssssssss" /><path
   sodipodi:nodetypes="cccccccccccc"
   inkscape:connector-curvature="0"
   id="path489"
   d="m 436.18599,101.37325 h 14.11915 l 0.0396,-8.254829 h 15.10042 c 3.95418,0 5.20991,3.292346 5.20991,8.260119 v 75.69749 c 0,3.53214 -3.64858,6.31057 -6.89413,6.31057 H 453.5676 c -2.77713,0 -2.93759,-2.75027 -3.22382,-5.11126 v -5.02472 h -13.92126 z"
   style="fill:#1a1a1a;fill-opacity:1;stroke:#000000;stroke-width:2.38084px;stroke-linecap:butt;stroke-linejoin:miter;stroke-opacity:1" /><path
   sodipodi:nodetypes="cc"
   inkscape:connector-curvature="0"
   id="path491"
   d="M 450.31413,173.09899 V 101.91556"
   style="fill:#4d4d4d;fill-opacity:1;stroke:#000000;stroke-width:2.38084px;stroke-linecap:butt;stroke-linejoin:miter;stroke-opacity:1" /><path
   style="fill:#000000;fill-opacity:1;stroke:#000000;stroke-width:2.38084px;stroke-linecap:butt;stroke-linejoin:miter;stroke-opacity:1"
   d="m 373.75907,56.331932 v 15.945099 h 46.65899 V 56.047199 c 0,-2.098136 -2.0045,-3.04505 -3.81043,-3.488094 -13.03042,-3.195851 -27.05697,-3.033901 -39.42692,0 -1.95022,0.478352 -3.42164,1.676731 -3.42164,3.772827 z"
   id="path493"
   inkscape:connector-curvature="0"
   sodipodi:nodetypes="ccccccc" /><path
   style="fill:#1a1a1a;fill-opacity:1;stroke:#000000;stroke-width:2.17237px;stroke-linecap:butt;stroke-linejoin:miter;stroke-opacity:1"
   d="m 328.76503,200.71013 c -1.93919,5.30908 -15.32424,15.23087 -28.69194,17.54148 0,3.02068 2.32777,7.20782 7.14847,7.20782 h 45.97017 c 9.68144,0 7.24523,23.99868 -8.43792,23.99868 h -15.86685 c -32.96491,10.32383 -62.4053,10.53453 -94.57959,0 H 217.5907 c -14.56407,0 -17.56246,-23.77964 -8.3608,-23.77964 h 45.093 c 6.53929,0 9.60063,-3.48548 9.21688,-7.02404 -11.73669,-3.70393 -22.21646,-8.55749 -28.13276,-17.58415 v -3.35253 h 93.39741 z"
   id="path495"
   inkscape:connector-curvature="0"
   sodipodi:nodetypes="ccccccccccccccc" /><path
   style="fill:#1a1a1a;fill-opacity:1;stroke:#000000;stroke-width:1.90855px;stroke-linecap:butt;stroke-linejoin:miter;stroke-opacity:1"
   d="m 323.90333,197.42871 c 0,0.25864 0,6.33961 0,6.33961 0,2.64664 2.74578,3.68739 6.26868,3.68739 18.97946,0.98439 42.03792,0.92671 61.4767,0 3.26666,0 6.47004,-1.82682 6.43375,-3.78444 v -7.7305 h -74.17913 z"
   id="path497"
   inkscape:connector-curvature="0"
   sodipodi:nodetypes="sccccccs" /><path
   style="fill:none;stroke:#000000;stroke-width:2.17237px;stroke-linecap:butt;stroke-linejoin:miter;stroke-opacity:1"
   d="M 306.67981,225.36384 H 258.46549"
   id="path499"
   inkscape:connector-curvature="0" /><path
   style="fill:#1a1a1a;fill-opacity:1;stroke:#000000;stroke-width:1.52922px;stroke-linecap:butt;stroke-linejoin:miter;stroke-opacity:1"
   d="m 410.95744,191.95569 v 11.14529 c 0,0.95997 -0.78891,2.0337 -1.40356,2.0337 h -24.64752 c -0.77371,0 -1.71247,-1.11882 -1.71247,-2.48117 v -10.779 z"
   id="path501"
   inkscape:connector-curvature="0"
   sodipodi:nodetypes="ccccccc" /><path
   style="fill:none;stroke:#000000;stroke-width:2.17237px;stroke-linecap:butt;stroke-linejoin:miter;stroke-opacity:1"
   d="M 300.45085,218.09897 H 262.16833"
   id="path503"
   inkscape:connector-curvature="0"
   sodipodi:nodetypes="cc" /><path
   style="fill:#1a1a1a;fill-opacity:1;stroke:#000000;stroke-width:1.91072px;stroke-linecap:butt;stroke-linejoin:miter;stroke-opacity:1"
   d="m 168.17704,197.4321 c 0,0.25923 0,6.35405 0,6.35405 0,2.65269 2.74567,3.69581 6.26843,3.69581 18.97961,0.98663 42.03787,0.92883 61.47686,0 3.26665,0 6.47003,-1.83097 6.43353,-3.79307 v -7.74812 h -74.17882 z"
   id="path505"
   inkscape:connector-curvature="0"
   sodipodi:nodetypes="sccccccs" /><path
   sodipodi:nodetypes="ccccccccccccc"
   inkscape:connector-curvature="0"
   id="path509"
   d="m 127.97821,199.68156 c -9.13045,0 -26.75113,-16.60978 -26.75113,-25.55474 v -58.65516 c 4.89663,-17.004065 14.29601,-35.476235 44.79276,-41.001659 5.32579,0 8.08745,-4.593318 8.08745,-7.403082 28.86963,-35.047531 60.21708,-53.083937 92.38484,-65.4887644 h 68.12218 C 343.91544,13.603715 360.25178,31.563134 373.09358,51.12183 v 10.819881 c 0,4.466687 4.04153,9.111493 9.33184,9.111493 h 56.61296 V 199.75287 Z"
   style="fill:#00bbdb;fill-opacity:1;stroke:#000000;stroke-width:2.38084px;stroke-linecap:round;stroke-linejoin:round;stroke-opacity:1" /><path
   sodipodi:nodetypes="ccccc"
   inkscape:connector-curvature="0"
   id="path511"
   d="M 137.62957,95.612654 H 381.03685 C 380.90989,49.220542 355.98652,1.1904175 308.05544,1.1904175 L 239.96665,1.9368534 C 173.30675,13.069286 159.60683,56.895869 137.62957,95.612654 Z"
   style="fill:#1a1a1a;fill-opacity:1;stroke:#000000;stroke-width:2.38084px;stroke-linecap:butt;stroke-linejoin:miter;stroke-opacity:1" /><path
   sodipodi:nodetypes="ccccccc"
   inkscape:connector-curvature="0"
   id="path513"
   d="m 117.65163,126.21591 h 265.42375 v 27.99077 c 0,9.45509 -13.18423,23.51226 -25.68638,23.51226 H 134.77563 c -13.59058,0 -23.64755,-12.02219 -23.64755,-21.64619 0,-11.59401 -1.09197,-29.85684 6.52355,-29.85684 z"
   style="fill:#1a1a1a;fill-opacity:1;stroke:#000000;stroke-width:2.38084px;stroke-linecap:butt;stroke-linejoin:miter;stroke-opacity:1" /><path
   style="fill:#b3b3b3;fill-opacity:1;stroke:#000000;stroke-width:0.0440961;stroke-linecap:round;stroke-linejoin:round;stroke-miterlimit:4;stroke-dasharray:none;stroke-opacity:1"
   d="M 262.15753,61.475439 V 59.59601 l 5.96863,-6.748572 c 3.28282,-3.711721 5.96865,-6.757871 5.96865,-6.76926 0,-0.0114 -2.38526,-0.0205 -5.30027,-0.0205 h -5.30015 v -1.750817 -1.750837 h 8.31899 8.31921 v 1.614095 1.614085 l -6.24909,7.045154 -6.24878,7.045125 6.47924,0.0114 6.47956,0.0114 v 1.729598 1.729577 h -9.21783 -9.21816 V 61.47706 Z"
   id="path519"
   inkscape:connector-curvature="0" /><path
   style="fill:#b3b3b3;fill-opacity:1;stroke:#000000;stroke-width:0.0346698;stroke-linecap:round;stroke-linejoin:round;stroke-miterlimit:4;stroke-dasharray:none;stroke-opacity:1"
   d="M 283.60209,53.007528 V 42.64872 h 2.81043 2.81031 v 8.607392 8.607402 h 7.04604 7.04614 v 1.751407 1.751416 h -9.85646 -9.85646 z"
   id="path4218"
   inkscape:connector-curvature="0" /><path
   style="fill:#b3b3b3;fill-opacity:1;stroke:#000000;stroke-width:0.0336517;stroke-linecap:round;stroke-linejoin:round;stroke-miterlimit:4;stroke-dasharray:none;stroke-opacity:1"
   d="m 273.86209,152.09906 v -10.42275 h 2.63145 2.63156 v 8.66053 8.6605 h 6.59763 6.59752 v 1.76226 1.76221 h -9.22908 -9.22908 z"
   id="path4220"
   inkscape:connector-curvature="0" /></svg>
